<?xml version="1.0" encoding="UTF-8"?>
<!DOCTYPE svg PUBLIC "-//W3C//DTD SVG 1.1//EN" "http://www.w3.org/Graphics/SVG/1.1/DTD/svg11.dtd">
<svg xmlns="http://www.w3.org/2000/svg" version="1.1" width="600px" height="600px" style="shape-rendering:geometricPrecision; text-rendering:geometricPrecision; image-rendering:optimizeQuality; fill-rule:evenodd; clip-rule:evenodd" xmlns:xlink="http://www.w3.org/1999/xlink">
<g><path style="opacity:0.996" fill="#dd2c00" d="M 388.5,556.5 C 352.866,541.603 320.7,521.269 292,495.5C 291.333,494.5 291.333,493.5 292,492.5C 316.027,450.997 322.027,406.997 310,360.5C 290.954,300.286 251.121,261.619 190.5,244.5C 190.5,244.167 190.5,243.833 190.5,243.5C 197.355,161.301 230.355,91.8013 289.5,35C 295.066,29.5975 301.066,24.7642 307.5,20.5C 355.578,76.0772 402.744,132.411 449,189.5C 470.704,215.554 488.371,244.221 502,275.5C 530.868,356.291 518.868,430.291 466,497.5C 444.317,522.692 418.483,542.358 388.5,556.5 Z"/></g>
<g><path style="opacity:0.995" fill="#ffc300" d="M 190.5,243.5 C 190.5,243.833 190.5,244.167 190.5,244.5C 186.841,342.9 220.175,426.234 290.5,494.5C 271.57,524.435 245.903,546.435 213.5,560.5C 141.779,529.932 96.9456,476.599 79,400.5C 68.2818,345.906 76.2818,294.239 103,245.5C 131.943,236.996 161.109,236.33 190.5,243.5 Z"/></g>
<g><path style="opacity:1" fill="#fe9000" d="M 190.5,244.5 C 251.121,261.619 290.954,300.286 310,360.5C 322.027,406.997 316.027,450.997 292,492.5C 291.333,493.5 291.333,494.5 292,495.5C 320.7,521.269 352.866,541.603 388.5,556.5C 330.698,581.567 272.365,582.9 213.5,560.5C 245.903,546.435 271.57,524.435 290.5,494.5C 220.175,426.234 186.841,342.9 190.5,244.5 Z"/></g>
</svg>
