<?xml version="1.0" encoding="UTF-8"?>
<svg version="1.1" xmlns="http://www.w3.org/2000/svg" width="479" height="479">
<path d="M0 0 C1.26759155 0.2952356 1.26759155 0.2952356 2.56079102 0.59643555 C10.25356515 2.52211556 17.25696965 5.50101592 24 9.6875 C25.18335938 10.41646484 25.18335938 10.41646484 26.390625 11.16015625 C28.06849462 12.20187994 29.73827547 13.25668123 31.40234375 14.3203125 C33.64181926 15.8490132 33.64181926 15.8490132 36.0625 15.4375 C36.949375 15.169375 37.83625 14.90125 38.75 14.625 C46.99111277 12.20950143 55.73524198 10.94223825 63.84375 14.53125 C71.938799 19.17595024 76.75768235 25.78513239 79.36328125 34.73046875 C80.69950608 41.2766207 79.48785285 47.61907631 76.75 53.625 C73.2858725 58.30507125 69.18842879 61.4749235 63.75 63.625 C63.09 63.625 62.43 63.625 61.75 63.625 C62.00394531 64.51574219 62.25789062 65.40648438 62.51953125 66.32421875 C69.30717263 91.60961803 69.24235009 118.07253066 69.41955566 144.06561279 C69.45005166 148.09658133 69.4963308 152.12737134 69.54101562 156.15820312 C69.62553739 163.98037744 69.69352682 171.8025673 69.75 179.625 C70.36574387 179.68540466 70.98148773 179.74580933 71.6158905 179.80804443 C72.4248024 179.8916925 73.23371429 179.97534058 74.06713867 180.06152344 C74.86850754 180.1425531 75.6698764 180.22358276 76.49552917 180.30706787 C82.27392324 181.12195405 87.34014098 184.14636737 91.3125 188.3125 C93.66294494 192.09365056 94.32451267 194.11097191 93.75 198.625 C91.64336627 203.0277916 89.48522089 206.79682639 85 208.9375 C81.74115729 208.62414974 79.55271212 207.84647805 76.546875 206.60546875 C75.64807617 206.23703857 74.74927734 205.8686084 73.82324219 205.48901367 C73.13907227 205.20388916 72.45490234 204.91876465 71.75 204.625 C71.78029297 205.6672876 71.81058594 206.7095752 71.84179688 207.78344727 C71.95578288 211.72528167 72.06690336 215.66719293 72.17724609 219.60913086 C72.22499152 221.30120969 72.27346974 222.99326803 72.32275391 224.68530273 C73.5270523 266.11070966 70.13274941 301.74910378 47.75 337.625 C48.13671875 338.06070312 48.5234375 338.49640625 48.921875 338.9453125 C59.31403817 350.82941989 59.31403817 350.82941989 60.0625 359.0625 C59.70745919 363.10996526 59.05577343 365.27790954 56.75 368.625 C53.49468748 371.34196626 50.47238499 372.49365727 46.3125 373.25 C38.77916661 371.92836256 34.03939091 366.17772133 29.390625 360.45703125 C27.60573877 358.4639083 26.07421867 356.96556058 23.75 355.625 C21.50093751 355.69767665 21.50093751 355.69767665 19.125 356.5625 C17.66126953 357.01109375 17.66126953 357.01109375 16.16796875 357.46875 C13.70295628 358.3026285 11.25088618 359.15591839 8.80078125 360.03125 C-26.25902987 372.4665142 -68.36783621 373.52934976 -103.67797852 361.11254883 C-108.35511751 359.54054924 -112.55262612 359.02883736 -117.25 360.625 C-120.40719067 362.4924781 -123.18187472 364.72240485 -126 367.0625 C-127.47175915 368.25142543 -128.94564484 369.43772433 -130.421875 370.62109375 C-131.0622168 371.14888428 -131.70255859 371.6766748 -132.36230469 372.22045898 C-136.34395885 375.18301155 -139.24560642 376.13565241 -144.25 375.625 C-147.125 374.25 -147.125 374.25 -149.25 372.625 C-149.25 371.965 -149.25 371.305 -149.25 370.625 C-150.24 370.295 -151.23 369.965 -152.25 369.625 C-154.67024838 365.75260259 -154.40784845 362.20447883 -153.796875 357.84765625 C-152.97593171 354.51110818 -151.4568507 352.22129494 -149.25 349.625 C-148.26 349.295 -147.27 348.965 -146.25 348.625 C-145.92 347.635 -145.59 346.645 -145.25 345.625 C-143.62347684 343.91913425 -141.95993434 342.2472454 -140.25 340.625 C-140.69730469 339.92375 -141.14460938 339.2225 -141.60546875 338.5 C-142.86567783 336.52235846 -144.12334865 334.54309791 -145.37890625 332.5625 C-146.45850872 330.86759174 -147.54548959 329.17723861 -148.65234375 327.5 C-171.89642196 291.85412926 -163.00786552 243.51428803 -160.25 203.625 C-160.84965576 203.97578613 -161.44931152 204.32657227 -162.06713867 204.68798828 C-162.8635376 205.14415527 -163.65993652 205.60032227 -164.48046875 206.0703125 C-165.65838989 206.7511792 -165.65838989 206.7511792 -166.86010742 207.44580078 C-171.04524474 209.51079345 -174.86156317 209.625 -179.5 209.625 C-182.65772761 207.82058422 -184.04435371 204.91757717 -185.25 201.625 C-186.11030366 196.99988123 -186.05970006 193.81256009 -183.375 189.875 C-175.59016978 184.26992224 -168.87550001 181.82629373 -159.25 181.625 C-159.38277344 180.31789062 -159.51554687 179.01078125 -159.65234375 177.6640625 C-160.61657072 167.97435689 -161.48059617 158.30654187 -161.90795898 148.57666016 C-162.11087292 144.20136072 -162.63037418 139.95761436 -163.25 135.625 C-164.77136118 117.58995471 -164.40641419 99.92708966 -162.49365234 81.94921875 C-162.17464546 78.90618711 -161.8959891 75.86014558 -161.625 72.8125 C-161.55023438 71.98105469 -161.47546875 71.14960937 -161.3984375 70.29296875 C-161.34945312 69.74253906 -161.30046875 69.19210938 -161.25 68.625 C-161.84167969 68.26148437 -162.43335938 67.89796875 -163.04296875 67.5234375 C-169.23252421 63.5855474 -174.42779914 59.64369082 -177.25 52.625 C-178.33186471 43.58288861 -177.5655083 36.12845743 -172.25 28.625 C-167.37971161 22.48985515 -161.93018056 18.48510923 -154.16796875 17.05859375 C-147.80778759 16.3551977 -143.04269936 16.63550352 -137.1015625 18.96875 C-134.3725838 19.93598296 -132.91104479 19.74543991 -130.25 18.625 C-128.69539063 17.48224609 -128.69539063 17.48224609 -127.109375 16.31640625 C-123.31327035 13.57165197 -119.37080984 11.52098027 -115.125 9.5625 C-114.00315308 9.04381348 -114.00315308 9.04381348 -112.85864258 8.51464844 C-78.89429131 -6.86132591 -35.95739352 -8.38527055 0 0 Z M49.75 32.625 C51.07 35.265 52.39 37.905 53.75 40.625 C54.08 40.625 54.41 40.625 54.75 40.625 C54.42 38.315 54.09 36.005 53.75 33.625 C52.43 33.295 51.11 32.965 49.75 32.625 Z M-157.4375 38.3125 C-159.41608738 40.47924985 -159.41608738 40.47924985 -159.75 43.125 C-159.09865908 46.38170462 -157.81818661 47.58555769 -155.25 49.625 C-154.59 49.625 -153.93 49.625 -153.25 49.625 C-151.6 45.995 -149.95 42.365 -148.25 38.625 C-153.04986582 36.02889917 -153.04986582 36.02889917 -157.4375 38.3125 Z " fill="#73CCDB" transform="translate(285.25,54.375)"/>
<path d="M0 0 C1.26759155 0.2952356 1.26759155 0.2952356 2.56079102 0.59643555 C10.25356515 2.52211556 17.25696965 5.50101592 24 9.6875 C25.18335938 10.41646484 25.18335938 10.41646484 26.390625 11.16015625 C28.06849462 12.20187994 29.73827547 13.25668123 31.40234375 14.3203125 C33.64181926 15.8490132 33.64181926 15.8490132 36.0625 15.4375 C36.949375 15.169375 37.83625 14.90125 38.75 14.625 C46.99111277 12.20950143 55.73524198 10.94223825 63.84375 14.53125 C71.938799 19.17595024 76.75768235 25.78513239 79.36328125 34.73046875 C80.69950608 41.2766207 79.48785285 47.61907631 76.75 53.625 C73.2858725 58.30507125 69.18842879 61.4749235 63.75 63.625 C63.09 63.625 62.43 63.625 61.75 63.625 C62.00394531 64.51574219 62.25789062 65.40648438 62.51953125 66.32421875 C69.30717263 91.60961803 69.24235009 118.07253066 69.41955566 144.06561279 C69.45005166 148.09658133 69.4963308 152.12737134 69.54101562 156.15820312 C69.62553739 163.98037744 69.69352682 171.8025673 69.75 179.625 C70.36574387 179.68540466 70.98148773 179.74580933 71.6158905 179.80804443 C72.4248024 179.8916925 73.23371429 179.97534058 74.06713867 180.06152344 C74.86850754 180.1425531 75.6698764 180.22358276 76.49552917 180.30706787 C82.27392324 181.12195405 87.34014098 184.14636737 91.3125 188.3125 C93.66294494 192.09365056 94.32451267 194.11097191 93.75 198.625 C91.64336627 203.0277916 89.48522089 206.79682639 85 208.9375 C81.74115729 208.62414974 79.55271212 207.84647805 76.546875 206.60546875 C75.64807617 206.23703857 74.74927734 205.8686084 73.82324219 205.48901367 C73.13907227 205.20388916 72.45490234 204.91876465 71.75 204.625 C71.78029297 205.6672876 71.81058594 206.7095752 71.84179688 207.78344727 C71.95578288 211.72528167 72.06690336 215.66719293 72.17724609 219.60913086 C72.22499152 221.30120969 72.27346974 222.99326803 72.32275391 224.68530273 C73.5270523 266.11070966 70.13274941 301.74910378 47.75 337.625 C48.13671875 338.06070312 48.5234375 338.49640625 48.921875 338.9453125 C59.31403817 350.82941989 59.31403817 350.82941989 60.0625 359.0625 C59.70745919 363.10996526 59.05577343 365.27790954 56.75 368.625 C53.49468748 371.34196626 50.47238499 372.49365727 46.3125 373.25 C38.77916661 371.92836256 34.03939091 366.17772133 29.390625 360.45703125 C27.60573877 358.4639083 26.07421867 356.96556058 23.75 355.625 C21.50093751 355.69767665 21.50093751 355.69767665 19.125 356.5625 C17.66126953 357.01109375 17.66126953 357.01109375 16.16796875 357.46875 C13.70295628 358.3026285 11.25088618 359.15591839 8.80078125 360.03125 C-26.25902987 372.4665142 -68.36783621 373.52934976 -103.67797852 361.11254883 C-108.35511751 359.54054924 -112.55262612 359.02883736 -117.25 360.625 C-120.40719067 362.4924781 -123.18187472 364.72240485 -126 367.0625 C-127.47175915 368.25142543 -128.94564484 369.43772433 -130.421875 370.62109375 C-131.0622168 371.14888428 -131.70255859 371.6766748 -132.36230469 372.22045898 C-136.34395885 375.18301155 -139.24560642 376.13565241 -144.25 375.625 C-147.125 374.25 -147.125 374.25 -149.25 372.625 C-149.25 371.965 -149.25 371.305 -149.25 370.625 C-150.24 370.295 -151.23 369.965 -152.25 369.625 C-154.67024838 365.75260259 -154.40784845 362.20447883 -153.796875 357.84765625 C-152.97593171 354.51110818 -151.4568507 352.22129494 -149.25 349.625 C-148.26 349.295 -147.27 348.965 -146.25 348.625 C-145.92 347.635 -145.59 346.645 -145.25 345.625 C-143.62347684 343.91913425 -141.95993434 342.2472454 -140.25 340.625 C-140.69730469 339.92375 -141.14460938 339.2225 -141.60546875 338.5 C-142.86567783 336.52235846 -144.12334865 334.54309791 -145.37890625 332.5625 C-146.45850872 330.86759174 -147.54548959 329.17723861 -148.65234375 327.5 C-171.89642196 291.85412926 -163.00786552 243.51428803 -160.25 203.625 C-160.84965576 203.97578613 -161.44931152 204.32657227 -162.06713867 204.68798828 C-162.8635376 205.14415527 -163.65993652 205.60032227 -164.48046875 206.0703125 C-165.65838989 206.7511792 -165.65838989 206.7511792 -166.86010742 207.44580078 C-171.04524474 209.51079345 -174.86156317 209.625 -179.5 209.625 C-182.65772761 207.82058422 -184.04435371 204.91757717 -185.25 201.625 C-186.11030366 196.99988123 -186.05970006 193.81256009 -183.375 189.875 C-175.59016978 184.26992224 -168.87550001 181.82629373 -159.25 181.625 C-159.38277344 180.31789062 -159.51554687 179.01078125 -159.65234375 177.6640625 C-160.61657072 167.97435689 -161.48059617 158.30654187 -161.90795898 148.57666016 C-162.11087292 144.20136072 -162.63037418 139.95761436 -163.25 135.625 C-164.77136118 117.58995471 -164.40641419 99.92708966 -162.49365234 81.94921875 C-162.17464546 78.90618711 -161.8959891 75.86014558 -161.625 72.8125 C-161.55023438 71.98105469 -161.47546875 71.14960937 -161.3984375 70.29296875 C-161.34945312 69.74253906 -161.30046875 69.19210938 -161.25 68.625 C-161.84167969 68.26148437 -162.43335938 67.89796875 -163.04296875 67.5234375 C-169.23252421 63.5855474 -174.42779914 59.64369082 -177.25 52.625 C-178.33186471 43.58288861 -177.5655083 36.12845743 -172.25 28.625 C-167.37971161 22.48985515 -161.93018056 18.48510923 -154.16796875 17.05859375 C-147.80778759 16.3551977 -143.04269936 16.63550352 -137.1015625 18.96875 C-134.3725838 19.93598296 -132.91104479 19.74543991 -130.25 18.625 C-128.69539063 17.48224609 -128.69539063 17.48224609 -127.109375 16.31640625 C-123.31327035 13.57165197 -119.37080984 11.52098027 -115.125 9.5625 C-114.00315308 9.04381348 -114.00315308 9.04381348 -112.85864258 8.51464844 C-78.89429131 -6.86132591 -35.95739352 -8.38527055 0 0 Z M-94.25 4.625 C-95.36375 4.934375 -96.4775 5.24375 -97.625 5.5625 C-118.07628496 11.35059952 -137.24230326 24.05920163 -148.25 42.625 C-166.34352111 76.00640128 -162.9940261 118.76078461 -158.96704102 155.18432617 C-157.86129907 166.14935208 -158.05508543 177.17943586 -158.0625 188.1875 C-158.0617749 189.28746307 -158.0610498 190.38742615 -158.06030273 191.52072144 C-158.06125825 204.64770478 -158.30719746 217.60321817 -159.52954102 230.67749023 C-160.41707097 240.86503732 -160.47935564 251.03092671 -160.5 261.25 C-160.50499512 262.09072052 -160.50999023 262.93144104 -160.51513672 263.79763794 C-160.64390162 290.03960378 -157.55163252 315.33328705 -139.25 335.625 C-138.65832031 336.30949219 -138.06664062 336.99398438 -137.45703125 337.69921875 C-129.63889795 346.1841438 -118.98039151 352.55551342 -108.25 356.625 C-107.02990234 357.12773438 -107.02990234 357.12773438 -105.78515625 357.640625 C-99.26190062 360.20777993 -92.70275989 361.67077747 -85.828125 362.9140625 C-82.25 363.625 -82.25 363.625 -78.921875 364.6484375 C-68.98441461 367.29137909 -58.52777971 366.86581979 -48.3125 366.875 C-47.53476227 366.87600708 -46.75702454 366.87701416 -45.95571899 366.87805176 C-28.97252875 366.86318433 -13.49681392 364.94583156 2.75 359.625 C3.678125 359.32851563 4.60625 359.03203125 5.5625 358.7265625 C27.15608295 351.38223341 45.95475589 338.18611287 56.75 317.625 C58.47762081 313.77707187 60.00739627 309.85848465 61.48828125 305.91015625 C62.75 302.625 62.75 302.625 63.7800293 300.70483398 C64.83915039 298.43384165 65.20643856 296.54250688 65.53125 294.0625 C65.65113281 293.18207031 65.77101563 292.30164063 65.89453125 291.39453125 C66.01183594 290.48058594 66.12914062 289.56664062 66.25 288.625 C66.48804428 286.8331282 66.7276415 285.04146206 66.96875 283.25 C67.15099121 281.85793335 67.15099121 281.85793335 67.33691406 280.43774414 C67.60432751 278.6168988 67.91615472 276.80179976 68.28027344 274.99780273 C70.28183111 264.94452441 70.05385988 254.89304152 70 244.6875 C69.9978952 243.696362 69.99579041 242.705224 69.99362183 241.68405151 C69.95730115 226.99005949 69.4516846 212.37957075 68.53222656 197.71728516 C67.77805393 185.50093924 67.46493656 173.2992904 67.25 161.0625 C66.96173594 145.02990628 66.47516717 129.01904257 65.75 113 C65.7080249 112.04286102 65.6660498 111.08572205 65.62280273 110.09957886 C65.50355297 107.40727048 65.37812384 104.71533663 65.25 102.0234375 C65.21459106 101.22775864 65.17918213 100.43207977 65.1427002 99.61228943 C64.96898756 96.14567111 64.60535894 92.97709531 63.75 89.625 C63.67303202 87.8547365 63.61283239 86.08372093 63.5625 84.3125 C63.09352116 77.56228001 61.57878656 71.22701099 59.875 64.6875 C59.61823486 63.69258545 59.36146973 62.6976709 59.09692383 61.67260742 C57.74736904 56.65494489 56.20292526 52.22926135 53.75 47.625 C53.41613281 46.61566406 53.08226562 45.60632813 52.73828125 44.56640625 C48.27108685 31.27076442 35.11133978 18.05448913 22.75 11.625 C14.01152581 7.42074019 5.08157405 4.22828279 -4.25 1.625 C-5.00023437 1.40972656 -5.75046875 1.19445313 -6.5234375 0.97265625 C-16.62037156 -1.76109863 -26.9399993 -1.57787827 -37.3125 -1.5625 C-38.4357518 -1.56159363 -38.4357518 -1.56159363 -39.58169556 -1.56066895 C-58.1814642 -1.52006404 -76.40560248 -1.09867468 -94.25 4.625 Z M49.75 32.625 C51.07 35.265 52.39 37.905 53.75 40.625 C54.08 40.625 54.41 40.625 54.75 40.625 C54.42 38.315 54.09 36.005 53.75 33.625 C52.43 33.295 51.11 32.965 49.75 32.625 Z M-157.4375 38.3125 C-159.41608738 40.47924985 -159.41608738 40.47924985 -159.75 43.125 C-159.09865908 46.38170462 -157.81818661 47.58555769 -155.25 49.625 C-154.59 49.625 -153.93 49.625 -153.25 49.625 C-151.6 45.995 -149.95 42.365 -148.25 38.625 C-153.04986582 36.02889917 -153.04986582 36.02889917 -157.4375 38.3125 Z " fill="#121413" transform="translate(285.25,54.375)"/>
<path d="M0 0 C7.78423737 5.70384827 12.74556172 11.69355992 14.3125 21.375 C15.34151482 31.09919002 13.57562821 38.52692379 8.125 46.625 C-1.50444269 56.04045508 -12.11784659 58.97032451 -25.33544922 58.9309082 C-33.45106878 58.60704545 -39.99324071 55.9635202 -45.87109375 50.25390625 C-52.3230925 42.51419049 -55.38515652 33.43594146 -54.6875 23.375 C-53.46773931 14.3836212 -48.84187748 7.64917901 -41.94140625 1.9140625 C-30.0452391 -6.20914349 -12.41931964 -7.73318042 0 0 Z " fill="#FAFAFA" transform="translate(209.6875,80.625)"/>
<path d="M0 0 C0.75990234 -0.01611328 1.51980469 -0.03222656 2.30273438 -0.04882812 C10.76921618 -0.05605825 17.44879432 2.71652091 23.94140625 8.12890625 C31.13949872 15.53909721 32.62462403 23.44037073 32.54516602 33.34912109 C32.24228499 41.59561346 29.59981402 47.35839891 24.0625 53.3125 C15.37012086 60.81720753 4.61642872 64.1321207 -6.7734375 63.68359375 C-16.98418306 62.48603717 -24.16883297 57.98701095 -30.9375 50.3125 C-36.45733213 41.87212176 -37.06980533 32.79069232 -35.58203125 22.96484375 C-33.01707626 14.58140026 -25.35814605 7.66453495 -18.0546875 3.25 C-12.0390914 0.58626741 -6.46828422 -0.02729234 0 0 Z " fill="#FBFBFB" transform="translate(279.9375,72.6875)"/>
<path d="M0 0 C0 0.33 0 0.66 0 1 C-1.28986816 0.99476318 -2.57973633 0.98952637 -3.90869141 0.98413086 C-8.75813078 0.96583981 -13.6075672 0.95448114 -18.45703125 0.94506836 C-20.54395055 0.94008266 -22.63086644 0.93329169 -24.71777344 0.92456055 C-46.99775217 0.59024138 -46.99775217 0.59024138 -68.875 4.25 C-70.14053711 4.58269897 -70.14053711 4.58269897 -71.43164062 4.92211914 C-73.95991575 5.59634172 -76.48061692 6.29334377 -79 7 C-80.12003418 7.3101001 -80.12003418 7.3101001 -81.26269531 7.62646484 C-100.65396813 13.0706329 -117.17647496 22.21498824 -130 38 C-130.47179687 38.57363281 -130.94359375 39.14726563 -131.4296875 39.73828125 C-155.15226568 70.60710193 -149.70833004 121.45865071 -145.71704102 157.55932617 C-144.61129906 168.52435221 -144.80509042 179.55443599 -144.8125 190.5625 C-144.8117749 191.66512177 -144.8110498 192.76774353 -144.81030273 193.90377808 C-144.81124097 206.82992333 -145.01961804 219.58334123 -146.28393555 232.45263672 C-147.99494491 251.85847603 -147.15528124 271.53848279 -147 291 C-149.10608054 287.54717785 -149.24812354 284.84093059 -149.24291992 280.83300781 C-149.24599655 279.58360413 -149.24907318 278.33420044 -149.25224304 277.04693604 C-149.24533556 275.68233054 -149.23806788 274.31772682 -149.23046875 272.953125 C-149.22927453 271.53985639 -149.2288243 270.12658697 -149.2290802 268.71331787 C-149.22751561 265.74421237 -149.21923911 262.77522746 -149.20581055 259.80615234 C-149.18900733 256.0479665 -149.18499113 252.28991531 -149.18575573 248.53169632 C-149.18547988 245.60582247 -149.17993051 242.67997661 -149.17275429 239.75411224 C-149.16962433 238.37179526 -149.1676139 236.98947517 -149.16686058 235.60715485 C-149.15557041 225.69977212 -148.71256883 215.87655438 -148 206 C-148.9132605 206.56062134 -148.9132605 206.56062134 -149.8449707 207.13256836 C-155.82925845 210.75622509 -160.24238321 212 -167.25 212 C-170.40772761 210.19558422 -171.79435371 207.29257717 -173 204 C-173.86030366 199.37488123 -173.80970006 196.18756009 -171.125 192.25 C-163.34016978 186.64492224 -156.62550001 184.20129373 -147 184 C-147.13277344 182.69289062 -147.26554687 181.38578125 -147.40234375 180.0390625 C-148.36657072 170.34935689 -149.23059617 160.68154187 -149.65795898 150.95166016 C-149.86087292 146.57636072 -150.38037418 142.33261436 -151 138 C-152.52136118 119.96495471 -152.15641419 102.30208966 -150.24365234 84.32421875 C-149.92464546 81.28118711 -149.6459891 78.23514558 -149.375 75.1875 C-149.30023438 74.35605469 -149.22546875 73.52460937 -149.1484375 72.66796875 C-149.09945312 72.11753906 -149.05046875 71.56710938 -149 71 C-149.59167969 70.63648437 -150.18335938 70.27296875 -150.79296875 69.8984375 C-156.98252421 65.9605474 -162.17779914 62.01869082 -165 55 C-166.08186471 45.95788861 -165.3155083 38.50345743 -160 31 C-155.12971161 24.86485515 -149.68018056 20.86010923 -141.91796875 19.43359375 C-135.55778759 18.7301977 -130.79269936 19.01050352 -124.8515625 21.34375 C-122.1225838 22.31098296 -120.66104479 22.12043991 -118 21 C-116.44539063 19.85724609 -116.44539063 19.85724609 -114.859375 18.69140625 C-111.06327035 15.94665197 -107.12080984 13.89598027 -102.875 11.9375 C-101.75315308 11.41881348 -101.75315308 11.41881348 -100.60864258 10.88964844 C-69.42836208 -3.22595145 -33.41486955 -4.05907309 0 0 Z M-145.1875 40.6875 C-147.16608738 42.85424985 -147.16608738 42.85424985 -147.5 45.5 C-146.84865908 48.75670462 -145.56818661 49.96055769 -143 52 C-142.34 52 -141.68 52 -141 52 C-139.35 48.37 -137.7 44.74 -136 41 C-140.79986582 38.40389917 -140.79986582 38.40389917 -145.1875 40.6875 Z " fill="#0F1A1D" transform="translate(273,52)"/>
<path d="M0 0 C2.92230425 1.63599084 5.86046661 3.47807863 7.828125 6.2109375 C7.97701172 7.40396484 7.97701172 7.40396484 8.12890625 8.62109375 C9.03324525 11.97068457 10.18316883 12.50713296 13.140625 14.2109375 C19.78414584 18.38958516 19.78414584 18.38958516 21.828125 22.2109375 C22.63273039 26.84377065 22.50813376 30.10885434 20.015625 34.1484375 C16.89969077 37.08631834 15.50535608 38.18798051 11.140625 38.3359375 C10.0475 38.2946875 8.954375 38.2534375 7.828125 38.2109375 C7.88613281 39.31953125 7.94414062 40.428125 8.00390625 41.5703125 C8.05081329 43.03381202 8.09631245 44.49735713 8.140625 45.9609375 C8.18251953 46.69054687 8.22441406 47.42015625 8.26757812 48.171875 C8.35595009 52.06024126 8.2116986 53.79539943 5.53125 56.69921875 C2.01877941 58.66356285 -0.20301942 58.71606457 -4.171875 58.2109375 C-6.609375 56.8359375 -6.609375 56.8359375 -8.171875 55.2109375 C-8.171875 54.5509375 -8.171875 53.8909375 -8.171875 53.2109375 C-8.84283203 53.75234375 -8.84283203 53.75234375 -9.52734375 54.3046875 C-14.44388029 58.07857483 -14.44388029 58.07857483 -17.921875 58.7109375 C-20.58230125 58.11973167 -21.57368323 57.39793677 -23.171875 55.2109375 C-23.171875 54.5509375 -23.171875 53.8909375 -23.171875 53.2109375 C-23.831875 53.2109375 -24.491875 53.2109375 -25.171875 53.2109375 C-27.03970546 47.72418554 -27.4077146 42.98900774 -27.171875 37.2109375 C-28.09419922 37.02144531 -28.09419922 37.02144531 -29.03515625 36.828125 C-31.9435456 35.98804179 -33.2291829 34.48857651 -35.171875 32.2109375 C-36.41387348 28.48494207 -36.70696055 25.08114533 -36.171875 21.2109375 C-34.13561803 17.35659394 -32.00857583 14.36908171 -28.171875 12.2109375 C-26.851875 12.2109375 -25.531875 12.2109375 -24.171875 12.2109375 C-24.15125 11.3446875 -24.130625 10.4784375 -24.109375 9.5859375 C-22.82009467 4.9445283 -20.10108139 2.84470685 -16.171875 0.2109375 C-11.07843524 -1.48687575 -5.10825171 -1.85587562 0 0 Z " fill="#394141" transform="translate(245.171875,127.7890625)"/>
<path d="M0 0 C0.33 0 0.66 0 1 0 C0.99887207 1.23226318 0.99774414 2.46452637 0.99658203 3.73413086 C0.72907537 53.40187322 0.72907537 53.40187322 24 96 C24.51691406 96.6084375 25.03382813 97.216875 25.56640625 97.84375 C35.19696433 108.4639143 48.99023014 114.28148022 62.203125 118.984375 C66.51181515 120.54898315 70.75586172 122.26920174 75 124 C75 124.33 75 124.66 75 125 C68.5118334 124.48094667 62.74017779 122.77801313 56.5625 120.7421875 C51.39655363 119.66594867 47.39664793 119.58517668 42.83789062 122.27636719 C40.57012596 123.92226039 38.40565066 125.64750589 36.25 127.4375 C34.77824085 128.62642543 33.30435516 129.81272433 31.828125 130.99609375 C31.1877832 131.52388428 30.54744141 132.0516748 29.88769531 132.59545898 C25.90604115 135.55801155 23.00439358 136.51065241 18 136 C15.125 134.625 15.125 134.625 13 133 C13 132.34 13 131.68 13 131 C12.01 130.67 11.02 130.34 10 130 C7.57975162 126.12760259 7.84215155 122.57947883 8.453125 118.22265625 C9.27406829 114.88610818 10.7931493 112.59629494 13 110 C14.485 109.505 14.485 109.505 16 109 C16.495 107.515 16.495 107.515 17 106 C18.62652316 104.29413425 20.29006566 102.6222454 22 101 C21.32904297 99.948125 21.32904297 99.948125 20.64453125 98.875 C19.38432217 96.89735846 18.12665135 94.91809791 16.87109375 92.9375 C15.79149128 91.24259174 14.70451041 89.55223861 13.59765625 87.875 C-3.17426462 62.15448237 -2.86849004 29.49032221 0 0 Z " fill="#090E10" transform="translate(123,294)"/>
<path d="M0 0 C1.35233486 0.88839517 2.68857871 1.80225016 4 2.75 C4.9075 3.3275 5.815 3.905 6.75 4.5 C11.93882565 9.68882565 14.32239175 14.8157906 14.6875 22.1875 C14.39672261 28.90681544 12.45073162 33.70896081 8 38.75 C4.49926984 41.66397878 1.62598787 43.75 -3 43.75 C-3.7032653 41.5466366 -4.38698402 39.3370286 -5.0625 37.125 C-5.44535156 35.89523438 -5.82820313 34.66546875 -6.22265625 33.3984375 C-7.01854755 29.66294768 -6.84121786 27.42776343 -6 23.75 C-5.37354788 18.47980231 -5.37354788 18.47980231 -7.5 13.8125 C-10.14381969 12.52601131 -10.14381969 12.52601131 -13.875 12.5 C-16.59943505 12.27635235 -17.70912399 12.00770594 -19.78125 10.171875 C-20.81509417 8.92518056 -21.81543717 7.64962754 -22.7734375 6.34375 C-23.92749972 4.60455832 -23.92749972 4.60455832 -26 3.75 C-25 0.75 -25 0.75 -22.25 -0.9375 C-15.12392759 -3.67942498 -6.73406222 -3.64855545 0 0 Z " fill="#70C7D5" transform="translate(348,71.25)"/>
<path d="M0 0 C1.99198133 -0.01649875 3.98390496 -0.04370765 5.97558594 -0.08203125 C25.62186025 -0.45538026 44.67900887 1.84859749 61.6940918 12.41259766 C62.87745117 13.1415625 62.87745117 13.1415625 64.0847168 13.88525391 C65.76258642 14.92697759 67.43236727 15.98177889 69.09643555 17.04541016 C71.33591106 18.57411086 71.33591106 18.57411086 73.7565918 18.16259766 C74.6434668 17.89447266 75.5303418 17.62634766 76.4440918 17.35009766 C84.68520457 14.93459909 93.42933378 13.66733591 101.5378418 17.25634766 C109.63289079 21.9010479 114.45177414 28.51023005 117.05737305 37.45556641 C118.39359788 44.00171836 117.18194465 50.34417396 114.4440918 56.35009766 C110.97996429 61.03016891 106.88252059 64.20002116 101.4440918 66.35009766 C100.7840918 66.35009766 100.1240918 66.35009766 99.4440918 66.35009766 C99.69803711 67.24083984 99.95198242 68.13158203 100.21362305 69.04931641 C107.00126443 94.33471569 106.93644188 120.79762831 107.11364746 146.79071045 C107.14414345 150.82167899 107.19042259 154.852469 107.23510742 158.88330078 C107.31962919 166.7054751 107.38761861 174.52766495 107.4440918 182.35009766 C109.4240918 182.35009766 111.4040918 182.35009766 113.4440918 182.35009766 C113.7740918 183.01009766 114.1040918 183.67009766 114.4440918 184.35009766 C111.8040918 184.35009766 109.1640918 184.35009766 106.4440918 184.35009766 C105.5516528 177.41380101 105.26768071 170.60496457 105.19799805 163.61572266 C105.16502025 161.32535482 105.13180935 159.03499033 105.09838867 156.74462891 C105.0514076 153.19110716 105.00701098 149.63759487 104.96728516 146.08398438 C104.82909629 134.26263005 104.63741106 122.48633319 103.53393555 110.70947266 C103.45760391 109.88827942 103.38127228 109.06708618 103.30262756 108.2210083 C102.8084482 103.477943 101.98428288 98.90977467 100.8631134 94.27438354 C100.31318309 91.74892154 100.23870595 89.30528279 100.1940918 86.72509766 C99.76838317 80.07931291 98.24437196 73.84797723 96.5690918 67.41259766 C96.31224609 66.41728027 96.05540039 65.42196289 95.79077148 64.39648438 C94.44119954 59.37930215 92.89680352 54.95395818 90.4440918 50.35009766 C89.94522461 48.83802734 89.94522461 48.83802734 89.4362793 47.29541016 C85.03343463 34.22554842 72.49894246 21.70281261 60.4440918 15.35009766 C51.70847507 11.14169836 42.77460455 7.95308437 33.4440918 5.35009766 C32.69385742 5.13482422 31.94362305 4.91955078 31.1706543 4.69775391 C20.97620853 1.93759764 10.59358389 2.18975598 0.1315918 2.22509766 C-0.9938504 2.226427 -0.9938504 2.226427 -2.14202881 2.2277832 C-13.97014103 2.24420193 -25.75266812 2.53808114 -37.5559082 3.35009766 C-27.88253797 -2.34385866 -10.97805095 0.06612745 0 0 Z M74.4440918 21.35009766 C74.21467165 23.66826309 74.21467165 23.66826309 76.7565918 25.78759766 C77.6434668 26.63322266 78.5303418 27.47884766 79.4440918 28.35009766 C79.89010742 28.87603516 80.33612305 29.40197266 80.7956543 29.94384766 C82.96562275 31.79500558 84.70676537 31.98788172 87.5065918 32.41259766 C92.23575846 33.14176432 92.23575846 33.14176432 94.4440918 35.35009766 C94.63596057 39.18747307 94.65704023 42.40628915 93.8112793 46.15478516 C93.35350725 50.13837598 94.19393587 52.91020286 95.3815918 56.72509766 C95.76186523 57.97033203 96.14213867 59.21556641 96.53393555 60.49853516 C96.83428711 61.43955078 97.13463867 62.38056641 97.4440918 63.35009766 C103.3764464 62.37491608 107.15140984 60.10821129 111.00268555 55.47509766 C115.11487541 49.13789855 115.67912762 42.72451444 114.4440918 35.35009766 C111.60388661 27.57690452 106.59027428 23.19604314 99.4440918 19.35009766 C98.82276367 18.97626953 98.20143555 18.60244141 97.5612793 18.21728516 C89.7859571 15.03255909 81.24819193 17.08085836 74.4440918 21.35009766 Z M87.4440918 35.35009766 C88.7640918 37.99009766 90.0840918 40.63009766 91.4440918 43.35009766 C91.7740918 43.35009766 92.1040918 43.35009766 92.4440918 43.35009766 C92.1140918 41.04009766 91.7840918 38.73009766 91.4440918 36.35009766 C90.1240918 36.02009766 88.8040918 35.69009766 87.4440918 35.35009766 Z " fill="#122023" transform="translate(247.555908203125,51.64990234375)"/>
<path d="M0 0 C1.2684375 0.7425 1.2684375 0.7425 2.5625 1.5 C0.13840133 6.68091677 -2.71158515 11.16529381 -7.4375 14.5 C-12.20027198 15.26143028 -16.65833324 15.04369734 -21.4375 14.5 C-23.46886249 19.33733782 -23.46886249 19.33733782 -23.4375 24.5 C-21.63087585 27.14971542 -20.32508942 29.05620529 -17.4375 30.5 C-18.093879 34.98525648 -19.13824209 39.16914029 -20.4375 43.5 C-26.39740153 43.2092731 -29.50197251 40.68328467 -33.4375 36.5 C-37.72045154 31.11885576 -38.11004146 26.48557545 -37.890625 19.66015625 C-37.22170835 14.99503929 -35.4817166 12.02355458 -32.4375 8.5 C-31.674375 7.613125 -30.91125 6.72625 -30.125 5.8125 C-29.238125 5.049375 -28.35125 4.28625 -27.4375 3.5 C-26.92058594 3.03335938 -26.40367188 2.56671875 -25.87109375 2.0859375 C-18.84532062 -3.34651775 -8.04140613 -3.41349485 0 0 Z " fill="#6FC6D5" transform="translate(147.4375,75.5)"/>
<path d="M0 0 C5.7316208 1.61201835 9.87889668 5.87889668 14 10 C14.49109422 14.25614994 14.41331107 16.36003448 12.0625 20 C8.32483142 22.44092642 6.66432325 22.32699054 2.39453125 21.59765625 C0.01280383 21.00319573 -2.25177996 20.26361234 -4.5625 19.4375 C-10.62775013 17.30362517 -15.33799586 17.27584058 -21.375 19.5 C-26.22393708 21.23956668 -30.89703278 22.11570251 -36 21 C-38.6875 18.4375 -38.6875 18.4375 -40 15 C-40.07533012 10.78151345 -39.28390052 7.97904357 -36.8125 4.625 C-33.70052949 1.72049419 -32.23294209 0.90797952 -28 1 C-26.375 2.375 -26.375 2.375 -25 4 C-21.50854626 5.18840562 -17.90815025 5.30642948 -14.25 5.5625 C-13.07953125 5.64628906 -11.9090625 5.73007813 -10.703125 5.81640625 C-9.81109375 5.87699219 -8.9190625 5.93757812 -8 6 C-8 5.34 -8 4.68 -8 4 C-6.865625 3.525625 -5.73125 3.05125 -4.5625 2.5625 C-1.24259834 1.36377917 -1.24259834 1.36377917 0 0 Z " fill="#F0CD9E" transform="translate(251,141)"/>
<path d="M0 0 C3.60973062 1.31070746 6.63850946 3.32371768 9.79296875 5.46875 C14.48435711 8.68194108 14.48435711 8.68194108 19.66796875 10.96875 C19.66796875 11.62875 19.66796875 12.28875 19.66796875 12.96875 C18.59546875 13.4225 17.52296875 13.87625 16.41796875 14.34375 C11.67771146 16.68001966 7.82920706 19.98219197 3.88183594 23.43896484 C0.39960704 26.46953831 -2.29764493 28.77499892 -6.95703125 29.21875 C-9.33203125 28.96875 -9.33203125 28.96875 -11.33203125 26.96875 C-11.0603559 22.16915219 -10.0776532 18.90812062 -7.33203125 14.96875 C-7.99203125 14.63875 -8.65203125 14.30875 -9.33203125 13.96875 C-9.57953125 14.690625 -9.82703125 15.4125 -10.08203125 16.15625 C-11.44186799 19.21588266 -13.16120879 21.4361238 -15.33203125 23.96875 C-17.86807269 20.16468784 -17.93401938 18.48366096 -17.33203125 13.96875 C-14.23868359 8.65242626 -6.41089094 -0.08590809 0 0 Z " fill="#EFCD9D" transform="translate(150.33203125,398.03125)"/>
<path d="M0 0 C8.40246202 6.53394249 12.55402952 13.96056244 14.3125 24.4375 C15.25863629 34.72485489 12.69045821 42.3617057 6.3125 50.4375 C-0.43404091 57.90929406 -10.14019163 61.97631546 -20.0703125 62.67578125 C-30.97646631 62.89208284 -40.12932666 61.30386615 -48.8359375 54.28125 C-52.36914625 50.7629493 -55.0968427 46.68057655 -57.6875 42.4375 C-58.07421875 41.81230469 -58.4609375 41.18710938 -58.859375 40.54296875 C-61.84094276 32.96247335 -60.07988858 23.24749696 -57 15.96484375 C-51.77976602 5.91278606 -43.85591378 -0.30373098 -33.375 -4.5 C-22.17712435 -7.75683278 -9.60190406 -6.49160987 0 0 Z M-50.6875 10.4375 C-56.97927065 18.66742528 -57.47932809 26.17767036 -56.6875 36.4375 C-54.63261297 44.79321532 -48.76344835 51.62262726 -41.6875 56.3125 C-33.21553538 61.10521142 -23.96066753 61.78888003 -14.49609375 59.75 C-3.90460114 56.50356548 4.62213583 51.1754744 10.3125 41.4375 C12.89311087 32.55042587 12.72756242 21.23066815 8.875 12.8125 C4.15077743 4.70906882 -2.72635444 -0.10121239 -11.6875 -2.5625 C-14.63974599 -2.97472945 -17.52205382 -3.04136036 -20.5 -3 C-21.28826172 -2.99025146 -22.07652344 -2.98050293 -22.88867188 -2.97045898 C-34.83131319 -2.60919164 -42.62933606 1.59529848 -50.6875 10.4375 Z " fill="#263437" transform="translate(300.6875,75.5625)"/>
<path d="M0 0 C0.79712402 0.00128906 1.59424805 0.00257812 2.41552734 0.00390625 C8.4154057 0.10152477 13.74550162 0.96261124 19.3125 3.3125 C19.3125 3.9725 19.3125 4.6325 19.3125 5.3125 C20.034375 5.56 20.75625 5.8075 21.5 6.0625 C27.7600562 8.8447472 31.37131956 13.25470029 34.3125 19.3125 C37.25831321 27.94536927 38.31642719 39.04099799 34.34765625 47.55078125 C28.51741051 57.47319948 20.72504087 63.84165304 9.75 67.5 C-1.50112857 70.03849555 -12.61420428 68.63358255 -22.4375 62.625 C-26.8499025 59.46550191 -29.87096585 55.9268219 -32.6875 51.3125 C-33.30818359 50.34763672 -33.30818359 50.34763672 -33.94140625 49.36328125 C-37.76040991 42.37729895 -37.94031647 34.04878603 -36.6875 26.3125 C-33.93147117 17.70356189 -29.04738887 10.45450382 -21.1953125 5.8515625 C-18.72056998 4.58114571 -16.24337751 3.40963713 -13.6875 2.3125 C-12.94113281 1.94382812 -12.19476563 1.57515625 -11.42578125 1.1953125 C-7.59370775 -0.04013488 -4.00293279 -0.026581 0 0 Z M-28.0625 14.8125 C-33.68205463 21.89531816 -35.54998618 29.32028297 -34.6875 38.3125 C-32.92404187 47.56318292 -28.99044176 55.34496265 -21.125 60.75 C-11.79636441 66.58663296 -1.61166037 66.53743091 9 64.66015625 C17.63515602 62.28752494 24.05125936 58.34613974 29.6875 51.375 C34.60730076 42.10306779 35.7790154 33.58854621 33.375 23.1875 C30.93330563 16.01285304 25.21381633 9.87777413 18.875 5.8125 C2.49886506 -1.08271471 -15.92222262 1.29672321 -28.0625 14.8125 Z " fill="#28383B" transform="translate(189.6875,73.6875)"/>
<path d="M0 0 C1.828125 1.0234375 1.828125 1.0234375 4.828125 3.2109375 C5.4675 3.6440625 6.106875 4.0771875 6.765625 4.5234375 C8.50614929 7.28779961 8.00738663 10.04398211 7.828125 13.2109375 C1.203125 17.2109375 1.203125 17.2109375 -2.171875 17.2109375 C-2.171875 17.8709375 -2.171875 18.5309375 -2.171875 19.2109375 C-4.2340798 19.2652855 -6.29670316 19.30388711 -8.359375 19.3359375 C-9.50792969 19.35914063 -10.65648437 19.38234375 -11.83984375 19.40625 C-15.95354962 19.16511835 -18.68373038 18.3230283 -21.98046875 15.859375 C-23.98879231 13.08064536 -23.35873566 10.69388634 -22.88671875 7.4375 C-21.65954065 3.61514198 -19.5087494 2.34653712 -16.171875 0.2109375 C-11.07843524 -1.48687575 -5.10825171 -1.85587562 0 0 Z " fill="#0C1010" transform="translate(245.171875,127.7890625)"/>
<path d="M0 0 C2.81450349 1.28408446 4.51283729 3.04954499 6.66015625 5.26953125 C7.42457031 6.04941406 8.18898438 6.82929688 8.9765625 7.6328125 C14.51822319 13.7051663 14.51822319 13.7051663 14.41015625 18.01953125 C14.09765625 21.95703125 14.09765625 21.95703125 12.09765625 24.95703125 C11.43765625 24.95703125 10.77765625 24.95703125 10.09765625 24.95703125 C9.62328125 23.84328125 9.14890625 22.72953125 8.66015625 21.58203125 C7.84459162 19.68992131 7.0190927 17.79990416 6.09765625 15.95703125 C5.10765625 15.62703125 4.11765625 15.29703125 3.09765625 14.95703125 C3.45859375 15.47652344 3.81953125 15.99601562 4.19140625 16.53125 C8.89099223 23.59368337 8.89099223 23.59368337 8.09765625 27.95703125 C7.09765625 28.95703125 7.09765625 28.95703125 4.53515625 29.45703125 C-3.19588962 28.33251549 -9.34722513 19.92792998 -13.90234375 13.95703125 C-14.60456983 12.64207849 -15.28299204 11.31299057 -15.90234375 9.95703125 C-15.14308594 9.48652344 -14.38382812 9.01601563 -13.6015625 8.53125 C-12.60769531 7.90863281 -11.61382812 7.28601563 -10.58984375 6.64453125 C-9.11064453 5.72220703 -9.11064453 5.72220703 -7.6015625 4.78125 C-4.9322122 3.13693471 -4.9322122 3.13693471 -3.296875 1.1640625 C-1.90234375 -0.04296875 -1.90234375 -0.04296875 0 0 Z " fill="#ECCA9B" transform="translate(327.90234375,395.04296875)"/>
<path d="M0 0 C4.49413059 0.36837136 6.41674794 1.39057381 9.8125 4.3125 C12.18136013 8.02028108 11.963677 11.2421413 11.296875 15.44140625 C10.65059729 17.93791449 9.66850334 19.53073679 7.8125 21.3125 C7.1525 21.3125 6.4925 21.3125 5.8125 21.3125 C5.8125 21.9725 5.8125 22.6325 5.8125 23.3125 C-2.19576446 24.09762397 -2.19576446 24.09762397 -6.1875 20.9375 C-9.3698139 16.76071301 -9.5731743 13.96220472 -9.55078125 8.796875 C-9.00683598 5.0769912 -7.10326392 3.51710199 -4.1875 1.3125 C-3.1875 0.3125 -3.1875 0.3125 0 0 Z " fill="#0F1112" transform="translate(171.1875,97.6875)"/>
<path d="M0 0 C3.6578218 2.03993908 5.66946174 3.50419262 8 7 C8.4775733 11.85532856 8.51341394 14.04398784 6.1875 18.375 C3.24262054 21.90885535 1.72812254 22.9060487 -2.875 23.5 C-5.40916353 23.45333032 -6.59955345 23.31918233 -8.59765625 21.7265625 C-12.08490142 17.55813533 -13.39904192 14.54975401 -13.359375 9.10546875 C-12.72418186 5.38406547 -10.66020984 3.59687151 -8 1 C-5.13391871 -0.43304064 -3.18699217 -0.30644155 0 0 Z " fill="#0E1011" transform="translate(263,95)"/>
<path d="M0 0 C0 4.95 0 9.9 0 15 C-13.44391408 22.34725537 -13.44391408 22.34725537 -19 22 C-19.66 21.34 -20.32 20.68 -21 20 C-20.68134222 16.70720291 -19.45484649 15.13464912 -17 13 C-18.98 13.66 -20.96 14.32 -23 15 C-23.75 12.8125 -23.75 12.8125 -24 10 C-21.04471739 5.40289372 -17.90512194 2.70975131 -12.8125 0.8125 C-8.37131853 -0.1339813 -4.53137097 -0.1394268 0 0 Z " fill="#EECC9C" transform="translate(126,239)"/>
<path d="M0 0 C0.33 0 0.66 0 1 0 C2.20485362 15.75872032 2.20485362 15.75872032 -2.0625 20.75 C-5.49512074 23.90354588 -10.15309978 28 -15 28 C-14.74605469 28.89074219 -14.49210937 29.78148438 -14.23046875 30.69921875 C-7.44282737 55.98461803 -7.50764991 82.44753066 -7.33044434 108.44061279 C-7.29994834 112.47158133 -7.2536692 116.50237134 -7.20898438 120.53320312 C-7.12446261 128.35537744 -7.05647318 136.1775673 -7 144 C-5.02 144 -3.04 144 -1 144 C-0.505 144.99 -0.505 144.99 0 146 C-2.64 146 -5.28 146 -8 146 C-8.892439 139.06370335 -9.17641108 132.25486691 -9.24609375 125.265625 C-9.27907155 122.97525716 -9.31228244 120.68489267 -9.34570312 118.39453125 C-9.3926842 114.8410095 -9.43708082 111.28749721 -9.47680664 107.73388672 C-9.61499551 95.91253239 -9.80668073 84.13623553 -10.91015625 72.359375 C-11.0246537 71.12758514 -11.0246537 71.12758514 -11.14146423 69.87091064 C-11.6356436 65.12784535 -12.45980891 60.55967701 -13.58097839 55.92428589 C-14.13090871 53.39882388 -14.20538585 50.95518513 -14.25 48.375 C-14.67570863 41.72921526 -16.19971984 35.49787957 -17.875 29.0625 C-18.26026855 27.56952393 -18.26026855 27.56952393 -18.65332031 26.04638672 C-20.00617196 21.01701183 -21.62555447 16.65272971 -24 12 C-23.1875 9.625 -23.1875 9.625 -22 8 C-18.67289832 12.99065252 -16.41172092 18.92111612 -17 25 C-10.6412034 22.17562136 -6.13744488 19.28250464 -2.25 13.3125 C-0.59047226 8.91475149 -0.26748086 4.66707982 0 0 Z " fill="#0A1113" transform="translate(362,90)"/>
<path d="M0 0 C8.18342269 -0.74394752 13.19213395 2.02800698 19.5625 7 C21.35331288 9.49156574 21.33363806 10.99725743 21 14 C16.25 13.125 16.25 13.125 14 12 C14 12.99 14 13.98 14 15 C15.32 15.33 16.64 15.66 18 16 C17.67 17.65 17.34 19.3 17 21 C11.09030917 21.52765097 7.47277349 20.91959527 2.56640625 17.47265625 C1 16 1 16 0 13.3125 C0 12.219375 0 11.12625 0 10 C-0.01160156 9.14019531 -0.02320313 8.28039062 -0.03515625 7.39453125 C-0.05951096 4.92774743 -0.04386834 2.46637539 0 0 Z " fill="#EFCC9C" transform="translate(355,238)"/>
<path d="M0 0 C0.33 0 0.66 0 1 0 C3.04783132 17.04079612 3.41589946 34.04305055 3.60089111 51.18280029 C3.64165855 54.78406135 3.69240916 58.38518234 3.7421875 61.98632812 C3.83760428 68.99078164 3.9224145 75.99532428 4 83 C4.6867984 82.91829559 5.3735968 82.83659119 6.08120728 82.75241089 C6.98205048 82.65219635 7.88289368 82.55198181 8.81103516 82.44873047 C10.15060776 82.29523636 10.15060776 82.29523636 11.51724243 82.13864136 C16.42463705 81.86460419 20.07501065 84.29484281 24 87 C26.99097557 90.13687682 28.86359917 92.46549067 29.25 96.8125 C28.96616743 100.43136532 28.25774098 102.17782378 26 105 C23.8125 105.8125 23.8125 105.8125 22 106 C22.33 104.35 22.66 102.7 23 101 C21.68 100.67 20.36 100.34 19 100 C19 99.01 19 98.02 19 97 C21.31 97.66 23.62 98.32 26 99 C24.75165331 94.00661325 23.29565839 91.83122939 19 89 C15.57041011 86.94224607 12.73645414 85.85077142 8.80078125 85.41796875 C7.54652344 85.28003906 6.29226563 85.14210938 5 85 C5.15597656 86.21558594 5.31195313 87.43117188 5.47265625 88.68359375 C5.66955916 90.26819337 5.86615809 91.85283078 6.0625 93.4375 C6.16626953 94.23994141 6.27003906 95.04238281 6.37695312 95.86914062 C6.62644343 97.90807868 6.81780318 99.95395061 7 102 C6.505 102.495 6.505 102.495 6 103 C5.84379445 104.41327947 5.74943827 105.8335459 5.68359375 107.25390625 C5.64169922 108.10791016 5.59980469 108.96191406 5.55664062 109.84179688 C5.51732422 110.73962891 5.47800781 111.63746094 5.4375 112.5625 C5.39431641 113.46419922 5.35113281 114.36589844 5.30664062 115.29492188 C5.20021858 117.52978485 5.09820012 119.76476308 5 122 C4.67 122 4.34 122 4 122 C2.44125044 97.21883157 1.61727096 72.47102433 1.16635132 47.64654541 C0.97584139 37.30467198 0.71029172 26.96497857 0.4375 16.625 C0.39311258 14.92594493 0.34875921 13.22688897 0.30444336 11.52783203 C0.20396156 7.6851944 0.10236807 3.84258783 0 0 Z " fill="#1E2E30" transform="translate(350,153)"/>
<path d="M0 0 C0 0.33 0 0.66 0 1 C-1.28986816 0.99476318 -2.57973633 0.98952637 -3.90869141 0.98413086 C-8.75813078 0.96583981 -13.6075672 0.95448114 -18.45703125 0.94506836 C-20.54395055 0.94008266 -22.63086644 0.93329169 -24.71777344 0.92456055 C-46.99775217 0.59024138 -46.99775217 0.59024138 -68.875 4.25 C-69.71869141 4.47179932 -70.56238281 4.69359863 -71.43164062 4.92211914 C-73.95991575 5.59634172 -76.48061692 6.29334377 -79 7 C-80.12003418 7.3101001 -80.12003418 7.3101001 -81.26269531 7.62646484 C-94.24298964 11.27072814 -106.46304717 16.35976184 -117 24.9375 C-117.825 25.60652344 -118.65 26.27554688 -119.5 26.96484375 C-120.325 27.63644531 -121.15 28.30804688 -122 29 C-123.66553766 30.33474337 -125.33188126 31.66848379 -127 33 C-126.42655063 30.13275314 -126.1385485 29.1385485 -124 27 C-124.32041397 24.39719432 -124.32041397 24.39719432 -125 22 C-123.989375 21.938125 -122.97875 21.87625 -121.9375 21.8125 C-118.16394389 21.28357157 -115.97287077 19.60259414 -112.92504883 17.33911133 C-109.76510956 15.14097983 -106.36277647 13.54631944 -102.875 11.9375 C-102.12710205 11.59170898 -101.3792041 11.24591797 -100.60864258 10.88964844 C-69.42836208 -3.22595145 -33.41486955 -4.05907309 0 0 Z " fill="#080F10" transform="translate(273,52)"/>
<path d="M0 0 C1.26972656 0.14824219 2.53945312 0.29648438 3.84765625 0.44921875 C4.56187744 0.53260498 5.27609863 0.61599121 6.01196289 0.7019043 C8.39307282 1.0589392 10.0711702 1.53408935 12 3 C13.13891955 6.31738983 13.1981652 9.5766096 13.25 13.0625 C13.28867188 14.62677734 13.28867188 14.62677734 13.328125 16.22265625 C13 19 13 19 11.66796875 20.8125 C9.10828679 22.63484968 7.11855808 22.93635596 4 23 C1.82421875 21.61328125 1.82421875 21.61328125 0 19 C-0.49164787 15.73655992 -0.37637731 12.54067063 -0.25 9.25 C-0.23195312 8.36183594 -0.21390625 7.47367188 -0.1953125 6.55859375 C-0.14827374 4.37129152 -0.08257009 2.18620184 0 0 Z " fill="#F4F4F4" transform="translate(238,161)"/>
<path d="M0 0 C0.10806144 2.91765891 0.18732877 5.83131125 0.25 8.75 C0.30027344 9.9875 0.30027344 9.9875 0.3515625 11.25 C0.45016823 17.36355526 0.45016823 17.36355526 -1.8125 20.5625 C-4.66774393 22.43880316 -6.65268016 22.3043018 -10 22 C-13.71607548 15.72912263 -14.53449652 11.24539726 -14 4 C-12.23141309 3.32739649 -10.46003984 2.66211605 -8.6875 2 C-7.70136719 1.62875 -6.71523437 1.2575 -5.69921875 0.875 C-3 0 -3 0 0 0 Z " fill="#F3F3F3" transform="translate(235,161)"/>
<path d="M0 0 C5.8266889 2.86891436 10.61815438 5.32722671 14 11 C14.91981636 15.64014501 14.68504471 18.88975512 12.1875 22.9375 C9.07156577 25.87538084 7.67723108 26.97704301 3.3125 27.125 C2.219375 27.08375 1.12625 27.0425 0 27 C0.05800781 28.10859375 0.11601562 29.2171875 0.17578125 30.359375 C0.22268829 31.82287452 0.26818745 33.28641963 0.3125 34.75 C0.35439453 35.47960937 0.39628906 36.20921875 0.43945312 36.9609375 C0.52782509 40.84930376 0.3835736 42.58446193 -2.296875 45.48828125 C-5.80934559 47.45262535 -8.03114442 47.50512707 -12 47 C-14.4375 45.625 -14.4375 45.625 -16 44 C-16 43.34 -16 42.68 -16 42 C-16.70125 42.66 -17.4025 43.32 -18.125 44 C-21.43460229 46.30233203 -23.06225823 46.36630156 -27 46 C-25.16023408 44.77348939 -23.29581534 43.58192335 -21.39453125 42.453125 C-17.91674222 38.8902351 -18.00013371 35.57133916 -17.6875 30.75 C-17.61466797 29.90953125 -17.54183594 29.0690625 -17.46679688 28.203125 C-17.29071183 26.13706042 -17.14259186 24.06864602 -17 22 C-16.67 22 -16.34 22 -16 22 C-15.96132812 23.87945312 -15.96132812 23.87945312 -15.921875 25.796875 C-15.86558831 27.44795123 -15.8082411 29.09899155 -15.75 30.75 C-15.73582031 31.575 -15.72164062 32.4 -15.70703125 33.25 C-15.50565736 38.25054169 -15.50565736 38.25054169 -13.1484375 42.5859375 C-10.99292611 44.30370793 -10.99292611 44.30370793 -7.875 43.875 C-4.90318627 43.21691176 -4.90318627 43.21691176 -3 41 C-2.85482256 38.0906442 -2.81369204 35.280054 -2.875 32.375 C-2.88402344 31.57320312 -2.89304688 30.77140625 -2.90234375 29.9453125 C-2.92593777 27.96341477 -2.96180935 25.98167019 -3 24 C-2.31292969 23.93941406 -1.62585938 23.87882812 -0.91796875 23.81640625 C-0.01691406 23.73261719 0.88414062 23.64882812 1.8125 23.5625 C3.15248047 23.44068359 3.15248047 23.44068359 4.51953125 23.31640625 C7.12743559 23.06510233 7.12743559 23.06510233 10 22 C11.28442496 18.14672512 11.66584999 16.06168493 11 12 C7.86425038 8.4406713 4.2665345 5.13326725 0 3 C0 2.01 0 1.02 0 0 Z " fill="#3F4341" transform="translate(253,139)"/>
<path d="M0 0 C0.99 0.33 1.98 0.66 3 1 C2.01 1.33 1.02 1.66 0 2 C0 2.66 0 3.32 0 4 C-2.3317465 4.61084317 -4.66519132 5.21355188 -7 5.8125 C-7.94359375 6.0609668 -7.94359375 6.0609668 -8.90625 6.31445312 C-11.26304875 6.91498358 -13.62809094 7.46200636 -16 8 C-17.12019531 8.26167969 -18.24039063 8.52335937 -19.39453125 8.79296875 C-29.73293561 10.99262925 -39.71858875 11.46506244 -50.27246094 11.39111328 C-52.99725374 11.37501622 -55.72056397 11.39106441 -58.4453125 11.41015625 C-72.54414098 11.42729744 -86.24880449 10.60329767 -99 4 C-94.96570539 2.39844586 -91.90875651 3.6739842 -87.875 4.875 C-76.42359767 8.27947096 -64.92272834 8.23934152 -53.0625 8.25 C-52.28476227 8.25100708 -51.50702454 8.25201416 -50.70571899 8.25305176 C-34.04070699 8.23846287 -15.26291797 7.63145898 0 0 Z " fill="#060B0C" transform="translate(290,412)"/>
<path d="M0 0 C0.33 0 0.66 0 1 0 C1.38850773 48.45554773 1.38850773 48.45554773 -0.28417969 65.44970703 C-1.9921614 84.85718874 -1.15529282 104.53703157 -1 124 C-3.10981449 120.54318104 -3.24811574 117.83005632 -3.24291992 113.81713867 C-3.24599655 112.56450729 -3.24907318 111.31187592 -3.25224304 110.02128601 C-3.24533633 108.65351177 -3.23806871 107.28573931 -3.23046875 105.91796875 C-3.22927465 104.50230451 -3.22882427 103.08663946 -3.2290802 101.67097473 C-3.22751577 98.69767313 -3.21923963 95.72449197 -3.20581055 92.7512207 C-3.18899156 88.98396839 -3.18499158 85.21685038 -3.18575573 81.44956493 C-3.1854802 78.51944246 -3.17993592 75.589348 -3.17275429 72.659235 C-3.16962026 71.27330041 -3.16761288 69.88736271 -3.16686058 68.50142479 C-3.13838144 43.41514433 -3.13838144 43.41514433 -1 37 C-3.97 37.99 -6.94 38.98 -10 40 C-7 37 -7 37 -4 35 C-3.01 35 -2.02 35 -1 35 C-1 30.05 -1 25.1 -1 20 C-2.98 20 -4.96 20 -7 20 C-7 19.67 -7 19.34 -7 19 C-4.69 19 -2.38 19 0 19 C0 12.73 0 6.46 0 0 Z " fill="#25393B" transform="translate(127,219)"/>
<path d="M0 0 C2.18724071 0.37711047 3.85496781 0.9155307 5.77734375 2.03515625 C8.56884292 3.24693181 10.71947716 3.19715531 13.75 3.125 C14.73484375 3.10695313 15.7196875 3.08890625 16.734375 3.0703125 C17.48203125 3.04710937 18.2296875 3.02390625 19 3 C17.3125 6.875 17.3125 6.875 14.5 8 C10.89927683 8 9.05484805 7.3693482 5.78125 6 C4.88470703 5.62875 3.98816406 5.2575 3.06445312 4.875 C2.38318359 4.58625 1.70191406 4.2975 1 4 C1.03029297 5.0422876 1.06058594 6.0845752 1.09179688 7.15844727 C1.20578288 11.10028167 1.31690336 15.04219293 1.42724609 18.98413086 C1.47499152 20.67620969 1.52346974 22.36826803 1.57275391 24.06030273 C2.3884203 52.11756189 2.3884203 52.11756189 1.625 64.1875 C1.55539062 65.39792969 1.48578125 66.60835938 1.4140625 67.85546875 C1.02647117 70.79896897 0.38195041 72.44148679 -1 75 C-1.02312465 65.36887288 -1.04091571 55.73775526 -1.05181217 46.10660648 C-1.05704074 41.63494451 -1.06413789 37.16330147 -1.07543945 32.69165039 C-1.08626929 28.37988027 -1.09227704 24.06812841 -1.09487724 19.75634575 C-1.09673132 18.10763702 -1.1003516 16.45892934 -1.10573006 14.81022835 C-1.11294178 12.50896128 -1.11399089 10.2077706 -1.11352539 7.90649414 C-1.115746 6.5941127 -1.11796661 5.28173126 -1.12025452 3.92958069 C-1 1 -1 1 0 0 Z " fill="#0D1719" transform="translate(356,255)"/>
<path d="M0 0 C0.33 0 0.66 0 1 0 C1 7.92 1 15.84 1 24 C-2.3 24.66 -5.6 25.32 -9 26 C-14.08144673 27.62017142 -18.26647307 29.04019871 -22 33 C-22.88593998 36.13863704 -22.88593998 36.13863704 -23 39 C-20.03 38.505 -20.03 38.505 -17 38 C-18 41 -18 41 -20 42 C-19.67 43.32 -19.34 44.64 -19 46 C-13.55058144 46.58912633 -9.36774406 44.83321078 -4.390625 42.875 C-2 42 -2 42 0 42 C-0.33 42.99 -0.66 43.98 -1 45 C-3.3125 46.0625 -3.3125 46.0625 -6 47 C-6.598125 47.350625 -7.19625 47.70125 -7.8125 48.0625 C-11.77647987 49.76134852 -15.97051299 50 -20.25 50 C-23.40772761 48.19558422 -24.79435371 45.29257717 -26 42 C-26.86030366 37.37488123 -26.80970006 34.18756009 -24.125 30.25 C-16.34016978 24.64492224 -9.62550001 22.20129373 0 22 C-0.08378906 21.24976563 -0.16757813 20.49953125 -0.25390625 19.7265625 C-0.92585272 12.97307524 -0.96623413 6.71904351 0 0 Z " fill="#0E0D0B" transform="translate(126,214)"/>
<path d="M0 0 C0.33 0 0.66 0 1 0 C0.99887207 1.23226318 0.99774414 2.46452637 0.99658203 3.73413086 C0.12694923 48.70141241 0.12694923 48.70141241 18.2421875 88.796875 C20 91 20 91 20 93 C17.25229193 92.65727512 16.23798892 92.29581232 14.47265625 90.1015625 C-1.62798162 61.825096 -3.10548121 31.92677687 0 0 Z " fill="#091012" transform="translate(123,294)"/>
<path d="M0 0 C0 0.99 0 1.98 0 3 C-0.95519531 3.02578125 -1.91039062 3.0515625 -2.89453125 3.078125 C-15.48149931 3.63029508 -24.51559025 5.63230773 -33.8984375 14.6875 C-39.59396001 20.95469206 -41.14282511 26.58643552 -41.125 34.9375 C-41.12757813 36.14277344 -41.13015625 37.34804687 -41.1328125 38.58984375 C-41.01821801 41.53222592 -40.68262539 44.14489223 -40 47 C-41.485 47.495 -41.485 47.495 -43 48 C-46.72825727 41.93039717 -45.78394643 33.6615462 -44.34765625 26.953125 C-40.5738376 15.48589923 -33.56381043 8.54487347 -23 3 C-15.57794849 -0.67830066 -8.14204662 -0.31271018 0 0 Z " fill="#38484C" transform="translate(286,70)"/>
<path d="M0 0 C0.7265625 1.71484375 0.7265625 1.71484375 1 4 C-0.4765625 6.19140625 -0.4765625 6.19140625 -2.625 8.5625 C-9.92316045 17.25926263 -12.92837503 27.20641282 -16 38 C-17.32 37.34 -18.64 36.68 -20 36 C-19.34 36 -18.68 36 -18 36 C-17.86722656 35.39671875 -17.73445313 34.7934375 -17.59765625 34.171875 C-17.42105469 33.37265625 -17.24445313 32.5734375 -17.0625 31.75 C-16.88847656 30.96109375 -16.71445313 30.1721875 -16.53515625 29.359375 C-16.052444 27.23121297 -15.53836822 25.11467158 -15 23 C-15.598125 22.7525 -16.19625 22.505 -16.8125 22.25 C-19.45537263 20.73978707 -20.60337792 19.71973773 -22 17 C-21.93160241 13.16973491 -21.64612014 10.85251963 -19.3125 7.7734375 C-16.29697308 5.46085435 -14.78857539 5.75850078 -11.0625 6.125 C-6.80946416 6.41062424 -6.80946416 6.41062424 -3.10546875 4.6796875 C-1.56773936 2.86025837 -1.56773936 2.86025837 0 0 Z M-17.1875 9.6875 C-19.16608738 11.85424985 -19.16608738 11.85424985 -19.5 14.5 C-18.84865908 17.75670462 -17.56818661 18.96055769 -15 21 C-14.34 21 -13.68 21 -13 21 C-11.35 17.37 -9.7 13.74 -8 10 C-12.79986582 7.40389917 -12.79986582 7.40389917 -17.1875 9.6875 Z " fill="#101C1F" transform="translate(145,83)"/>
<path d="M0 0 C0.33 0 0.66 0 1 0 C1.85986493 18.30556905 -1.22488074 33.36539766 -9 50 C-9.48597656 51.06347656 -9.97195313 52.12695312 -10.47265625 53.22265625 C-13.75911069 60.14018057 -16.56673578 65.97163309 -24 69 C-21.90017142 65.39843643 -19.60007389 62.02258927 -17.1875 58.625 C-13.25328102 52.78525691 -10.66473058 46.83331777 -8.2265625 40.25 C-7 37 -7 37 -5.97216797 35.08203125 C-4.91118336 32.80978697 -4.54380181 30.91934216 -4.21875 28.4375 C-4.09991455 27.56311279 -3.9810791 26.68872559 -3.85864258 25.7878418 C-3.74029053 24.867854 -3.62193848 23.94786621 -3.5 23 C-3.24455252 21.11053308 -2.98804681 19.22120891 -2.73046875 17.33203125 C-2.60720215 16.4188916 -2.48393555 15.50575195 -2.35693359 14.56494141 C-1.67881566 9.69195437 -0.85269065 4.84528924 0 0 Z " fill="#111E21" transform="translate(354,320)"/>
<path d="M0 0 C0.6875 1.75 0.6875 1.75 1 4 C0.2884375 4.8971875 0.2884375 4.8971875 -0.4375 5.8125 C-2.64851227 8.90791717 -2.27499145 11.28761549 -2 15 C-1.67 15.66 -1.34 16.32 -1 17 C0.98 14.03 2.96 11.06 5 8 C5.99 8.33 6.98 8.66 8 9 C7.34 10.051875 6.68 11.10375 6 12.1875 C4.23592344 15.26060863 3.46977189 17.39444888 4 21 C4.33 21.33 4.66 21.66 5 22 C10.75162147 21.88261997 13.716049 20.11113657 18.10546875 16.47265625 C19.99043494 15.00743511 21.83564461 13.99339593 24 13 C13.26697114 25.79849145 13.26697114 25.79849145 8.1875 26.25 C4.61914323 25.97012888 2.82380222 25.15937817 0 23 C0 22.34 0 21.68 0 21 C-0.99 20.67 -1.98 20.34 -3 20 C-5.42037742 16.12739613 -5.14888059 12.58448264 -4.55859375 8.2265625 C-3.71227546 4.85312596 -2.15244644 2.70791649 0 0 Z " fill="#0D0D0B" transform="translate(136,404)"/>
<path d="M0 0 C1.99198133 -0.01649875 3.98390496 -0.04370765 5.97558594 -0.08203125 C38.37241613 -0.69768612 38.37241613 -0.69768612 50.4440918 7.35009766 C50.4440918 8.01009766 50.4440918 8.67009766 50.4440918 9.35009766 C52.0940918 9.68009766 53.7440918 10.01009766 55.4440918 10.35009766 C55.1140918 11.01009766 54.7840918 11.67009766 54.4440918 12.35009766 C53.6912793 12.03556641 52.9384668 11.72103516 52.1628418 11.39697266 C34.88015129 4.43355852 18.65804267 2.16251341 0.1315918 2.22509766 C-0.9938504 2.226427 -0.9938504 2.226427 -2.14202881 2.2277832 C-13.97014103 2.24420193 -25.75266812 2.53808114 -37.5559082 3.35009766 C-27.88253797 -2.34385866 -10.97805095 0.06612745 0 0 Z " fill="#264349" transform="translate(247.555908203125,51.64990234375)"/>
<path d="M0 0 C2.9949493 -0.25670994 4.59877275 -0.24701891 7.1953125 1.3515625 C10.5427879 3.31902019 14.00029408 4.42880041 17.6875 5.5625 C24.73140496 7.73140496 24.73140496 7.73140496 27 10 C20.5118334 9.48094667 14.74017779 7.77801313 8.5625 5.7421875 C3.62094704 4.7126973 -0.53628438 4.58014782 -4.9453125 7.12109375 C-6.87487547 8.52657789 -8.68978339 10.00672371 -10.5 11.5625 C-11.13164062 12.08263672 -11.76328125 12.60277344 -12.4140625 13.13867188 C-13.95496424 14.41108316 -15.47927623 15.70354027 -17 17 C-17.66 16.67 -18.32 16.34 -19 16 C-17.29295928 14.29295928 -15.58548699 12.58640236 -13.875 10.8828125 C-12.33508397 9.33648016 -10.82016711 7.76529116 -9.3125 6.1875 C-6.17908178 3.22345574 -4.32663454 2 0 2 C0 1.34 0 0.68 0 0 Z " fill="#181A18" transform="translate(171,409)"/>
<path d="M0 0 C2.6881249 -0.08164159 5.373723 -0.14079668 8.0625 -0.1875 C8.81466797 -0.21263672 9.56683594 -0.23777344 10.34179688 -0.26367188 C19.55586218 -0.38333506 26.49030197 3.69151082 33 10 C39.5029735 18.37084887 41.20065284 26.55429179 41.265625 36.93359375 C41 39 41 39 39 41 C38.92523438 39.91203125 38.85046875 38.8240625 38.7734375 37.703125 C37.91026342 27.3142084 36.65692142 17.36879299 28.69921875 9.81640625 C19.73192427 3.10836792 10.99151227 1.53934663 0 1 C0 0.67 0 0.34 0 0 Z " fill="#30383A" transform="translate(274,71)"/>
<path d="M0 0 C0.33 0.66 0.66 1.32 1 2 C0.0625 4.625 0.0625 4.625 -1 7 C-0.38511719 7.64066406 0.22976563 8.28132813 0.86328125 8.94140625 C6.53347261 15.00950578 10.52892237 19.28922366 11.375 27.75 C11 31 11 31 9.5 32.9375 C9.005 33.288125 8.51 33.63875 8 34 C7.34 33.67 6.68 33.34 6 33 C6.33 32.34 6.66 31.68 7 31 C7.63982056 25.92325905 7.63982056 25.92325905 5.98095703 21.27099609 C4.58180227 19.64445974 3.1213713 18.16137707 1.5625 16.6875 C-3.91017081 11.26948758 -3.91017081 11.26948758 -5 8 C-5.66 7.67 -6.32 7.34 -7 7 C-4.66666667 4.66666667 -2.33333333 2.33333333 0 0 Z " fill="#0B0B0A" transform="translate(334,386)"/>
<path d="M0 0 C0.33 0 0.66 0 1 0 C1.83553193 7.51978739 -0.44217184 12.05542838 -5 18 C-10.82892896 24.29668252 -17.89482635 29.21354681 -26.63671875 29.984375 C-31.77632256 30.01835585 -36.88984815 29.50634127 -42 29 C-42 28.67 -42 28.34 -42 28 C-40.80503906 27.90203125 -39.61007813 27.8040625 -38.37890625 27.703125 C-26.16031603 26.72303058 -26.16031603 26.72303058 -15 22 C-14.35804688 21.61714844 -13.71609375 21.23429687 -13.0546875 20.83984375 C-5.2948385 15.7910717 -2.83331967 8.46981732 0 0 Z " fill="#2F3C3E" transform="translate(224,111)"/>
<path d="M0 0 C4.49692378 -0.3526999 7.94895266 -0.5147987 12.0625 1.5 C14.29386226 4.37917711 14.59188793 6.34162017 14.375 9.9609375 C13.82123107 12.97205603 12.56399259 15.39334568 11 18 C8.12491516 16.56245758 7.53442879 14.51525125 6.0625 11.6875 C4.60167731 8.88914656 3.21699718 6.28615564 1.30859375 3.76953125 C0 2 0 2 0 0 Z M6 4 C7.32 6.64 8.64 9.28 10 12 C10.33 12 10.66 12 11 12 C10.67 9.69 10.34 7.38 10 5 C8.68 4.67 7.36 4.34 6 4 Z " fill="#0B1214" transform="translate(329,83)"/>
<path d="M0 0 C0.89203125 0.20367187 1.7840625 0.40734375 2.703125 0.6171875 C3.37859375 0.78476563 4.0540625 0.95234375 4.75 1.125 C4.75 1.785 4.75 2.445 4.75 3.125 C5.471875 3.3725 6.19375 3.62 6.9375 3.875 C13.1975562 6.6572472 16.80881956 11.06720029 19.75 17.125 C21.53379535 22.24958045 21.97078109 26.65086862 21.875 32.0625 C21.86597656 32.74634766 21.85695312 33.43019531 21.84765625 34.13476562 C21.82438958 35.79833287 21.78853167 37.46171631 21.75 39.125 C19.64766747 35.6153209 19.30665176 32.40962258 18.875 28.375 C17.4305427 17.81514174 14.21883789 12.55789505 5.75 6.125 C4.96625 5.526875 4.1825 4.92875 3.375 4.3125 C-0.66070222 2.48682519 -4.89787762 1.84331146 -9.25 1.125 C-5.82794357 -1.03377391 -3.8855015 -0.92025036 0 0 Z " fill="#2D3A3D" transform="translate(204.25,75.875)"/>
<path d="M0 0 C-2.66125745 1.79570284 -3.78111062 2.03345719 -7.015625 1.5390625 C-10.01041667 0.69270833 -13.00520833 -0.15364583 -16 -1 C-16 4.94 -16 10.88 -16 17 C-16.33 17 -16.66 17 -17 17 C-17.33 14.36 -17.66 11.72 -18 9 C-18.33 9 -18.66 9 -19 9 C-19 5.7 -19 2.4 -19 -1 C-19.71285156 -0.68804687 -20.42570312 -0.37609375 -21.16015625 -0.0546875 C-29.95701518 3.52088639 -29.95701518 3.52088639 -34.1875 2.25 C-35.115625 1.8375 -36.04375 1.425 -37 1 C-37 0.67 -37 0.34 -37 0 C-36.35933594 -0.12117187 -35.71867188 -0.24234375 -35.05859375 -0.3671875 C-31.08786312 -1.13647957 -27.24264997 -1.92469484 -23.375 -3.125 C-14.66580944 -5.38293829 -8.22226165 -3.06964435 0 0 Z " fill="#504A45" transform="translate(254,162)"/>
<path d="M0 0 C0.27714844 0.55945313 0.55429688 1.11890625 0.83984375 1.6953125 C1.22269531 2.45585938 1.60554687 3.21640625 2 4 C2.39316406 4.78117187 2.78632813 5.56234375 3.19140625 6.3671875 C7.88108873 14.94489733 14.09809047 19.6529536 23.44921875 22.4765625 C28.5736206 23.52812429 33.78377119 23.76619685 39 24 C39 24.66 39 25.32 39 26 C26.64593209 26.52282106 16.66263515 25.24002921 7 17 C3.54637629 13.22837667 0.25793421 9.03173686 -1 4 C-0.625 1.6875 -0.625 1.6875 0 0 Z " fill="#25373B" transform="translate(156,116)"/>
<path d="M0 0 C9.27025062 -0.46010435 15.79458855 0.21437602 23.1875 6.0625 C29.25550604 11.67660008 32.7472146 19.28133917 33.1875 27.5 C33.00950181 30.82263285 32.5567678 32.19412601 31 35 C30.99613281 33.90945312 30.99613281 33.90945312 30.9921875 32.796875 C30.67304861 24.49926391 28.85466412 17.82687141 24 11 C21.21534442 8.47889218 18.32963866 6.71307496 15 5 C14.01 4.401875 13.02 3.80375 12 3.1875 C8.04184284 1.62072946 4.22423098 1.27222822 0 1 C0 0.67 0 0.34 0 0 Z " fill="#122225" transform="translate(332,67)"/>
<path d="M0 0 C2.18724071 0.37711047 3.85496781 0.9155307 5.77734375 2.03515625 C8.56884292 3.24693181 10.71947716 3.19715531 13.75 3.125 C14.73484375 3.10695313 15.7196875 3.08890625 16.734375 3.0703125 C17.48203125 3.04710937 18.2296875 3.02390625 19 3 C17.3125 6.875 17.3125 6.875 14.5 8 C11 8 11 8 1 4 C1 11.59 1 19.18 1 27 C0.34 27.33 -0.32 27.66 -1 28 C-1.02886338 23.52084672 -1.04675187 19.04171709 -1.0625 14.5625 C-1.07087891 13.28310547 -1.07925781 12.00371094 -1.08789062 10.68554688 C-1.09111328 9.47060547 -1.09433594 8.25566406 -1.09765625 7.00390625 C-1.10289307 5.87799072 -1.10812988 4.7520752 -1.11352539 3.59204102 C-1 1 -1 1 0 0 Z " fill="#11100E" transform="translate(356,255)"/>
<path d="M0 0 C0.33 0 0.66 0 1 0 C1.03867188 1.87945312 1.03867188 1.87945312 1.078125 3.796875 C1.13441169 5.44795123 1.1917589 7.09899155 1.25 8.75 C1.26417969 9.575 1.27835938 10.4 1.29296875 11.25 C1.49382825 16.25176794 1.49382825 16.25176794 3.85546875 20.5859375 C5.99870224 22.29866924 5.99870224 22.29866924 9.0625 21.875 C12.15087217 21.11181389 12.15087217 21.11181389 15 19 C15.33 19.99 15.66 20.98 16 22 C13.44143409 24.45622327 12.09262844 24.99007552 8.5 25.375 C4.9079151 24.99013376 3.47415383 24.57311998 1 22 C1 21.34 1 20.68 1 20 C0.29875 20.66 -0.4025 21.32 -1.125 22 C-4.43460229 24.30233203 -6.06225823 24.36630156 -10 24 C-8.16023408 22.77348939 -6.29581534 21.58192335 -4.39453125 20.453125 C-0.91674222 16.8902351 -1.00013371 13.57133916 -0.6875 8.75 C-0.61466797 7.90953125 -0.54183594 7.0690625 -0.46679688 6.203125 C-0.29071183 4.13706042 -0.14259186 2.06864602 0 0 Z " fill="#161E20" transform="translate(236,161)"/>
<path d="M0 0 C5.21346482 0.81167716 10.27357048 2.00835087 15.390625 3.28125 C24.53633649 5.10247393 33.82846341 5.25891931 43.125 5.5625 C44.36765625 5.60568359 45.6103125 5.64886719 46.890625 5.69335938 C49.92699671 5.79846455 52.96343665 5.90061343 56 6 C56 6.33 56 6.66 56 7 C50.62893641 7.07473651 45.25818247 7.12887661 39.88671875 7.16479492 C38.06342285 7.17978489 36.2401624 7.20018384 34.41699219 7.22631836 C15.08262415 7.49632186 15.08262415 7.49632186 7 4 C6.29617187 3.71576172 5.59234375 3.43152344 4.8671875 3.13867188 C3.23025448 2.45982612 1.61206912 1.7359446 0 1 C0 0.67 0 0.34 0 0 Z " fill="#1A2E32" transform="translate(191,415)"/>
<path d="M0 0 C0.33 0 0.66 0 1 0 C3.27601898 15.41572522 3.27601898 15.41572522 -1 21.625 C-2.96484375 23.94921875 -2.96484375 23.94921875 -5 26 C-5.59941406 26.60457031 -6.19882812 27.20914063 -6.81640625 27.83203125 C-10.17312249 30.91840793 -13.67115448 33.46085493 -18 35 C-20.17578125 34.0625 -20.17578125 34.0625 -22 33 C-21.20335937 32.64808594 -20.40671875 32.29617187 -19.5859375 31.93359375 C-11.36774614 28.10443646 -6.94770493 24.4215574 -2 17 C-1.54861089 15.07552109 -1.54861089 15.07552109 -1.3671875 12.98828125 C-1.28339844 12.23095703 -1.19960938 11.47363281 -1.11328125 10.69335938 C-1.03464844 9.90767578 -0.95601563 9.12199219 -0.875 8.3125 C-0.78863281 7.51521484 -0.70226562 6.71792969 -0.61328125 5.89648438 C-0.40151528 3.93176674 -0.19978527 1.96597204 0 0 Z " fill="#384143" transform="translate(312,100)"/>
<path d="M0 0 C0.33 0 0.66 0 1 0 C2.36138997 14.44873 3.49120355 28.53129531 2 43 C1.67 43 1.34 43 1 43 C-0.28802244 34.16639726 -0.111369 25.33995655 -0.0625 16.4375 C-0.05747543 14.84049619 -0.05291421 13.24349086 -0.04882812 11.64648438 C-0.03789728 7.76428467 -0.02068533 3.88215949 0 0 Z " fill="#192D31" transform="translate(124,181)"/>
<path d="M0 0 C5.10945842 7.66418762 3.12539605 20.33811294 3.0625 29.25 C3.05798828 30.48363281 3.05347656 31.71726563 3.04882812 32.98828125 C3.03718487 35.99224069 3.02083376 38.99609266 3 42 C2.67 42 2.34 42 2 42 C1.16027486 36.68644514 0.70624905 31.43361799 0.4375 26.0625 C0.3950415 25.24289795 0.35258301 24.4232959 0.30883789 23.57885742 C-0.06800075 15.71528902 -0.09771114 7.871175 0 0 Z " fill="#020304" transform="translate(121,155)"/>
<path d="M0 0 C0.83595703 0.00902344 1.67191406 0.01804687 2.53320312 0.02734375 C4.58475969 0.05079011 6.63616777 0.08665734 8.6875 0.125 C8.6875 0.785 8.6875 1.445 8.6875 2.125 C7.72070312 2.16238281 6.75390625 2.19976562 5.7578125 2.23828125 C-4.47223002 2.75484775 -13.18897503 4.08305199 -22.3125 9.125 C-22.9725 8.465 -23.6325 7.805 -24.3125 7.125 C-22.75130578 6.33076139 -21.18848036 5.53972877 -19.625 4.75 C-18.31982422 4.08871094 -18.31982422 4.08871094 -16.98828125 3.4140625 C-16.10527344 2.98867187 -15.22226563 2.56328125 -14.3125 2.125 C-13.57 1.7434375 -12.8275 1.361875 -12.0625 0.96875 C-8.03733852 -0.26624273 -4.1822424 -0.08582344 0 0 Z " fill="#203033" transform="translate(190.3125,73.875)"/>
<path d="M0 0 C0 2 0 4 0 6 C-2.17578125 7.45703125 -2.17578125 7.45703125 -5 9 C-7.6170573 10.83233247 -10.2054372 12.70048901 -12.79296875 14.57421875 C-15 16 -15 16 -17 16 C-16.67 16.99 -16.34 17.98 -16 19 C-18.31 18.67 -20.62 18.34 -23 18 C-20.58407288 15.33608036 -17.95016502 13.6567229 -14.875 11.8125 C-9.38326215 8.39021862 -4.68131964 4.45014336 0 0 Z " fill="#2A3330" transform="translate(329,389)"/>
<path d="M0 0 C1.98 0 3.96 0 6 0 C6 0.33 6 0.66 6 1 C4.35 1 2.7 1 1 1 C1.23396484 2.82337891 1.23396484 2.82337891 1.47265625 4.68359375 C1.66955916 6.26819337 1.86615809 7.85283078 2.0625 9.4375 C2.16626953 10.23994141 2.27003906 11.04238281 2.37695312 11.86914062 C2.62644343 13.90807868 2.81780318 15.95395061 3 18 C2.67 18.33 2.34 18.66 2 19 C1.84379445 20.41327947 1.74943827 21.8335459 1.68359375 23.25390625 C1.64169922 24.10791016 1.59980469 24.96191406 1.55664062 25.84179688 C1.51732422 26.73962891 1.47800781 27.63746094 1.4375 28.5625 C1.39431641 29.46419922 1.35113281 30.36589844 1.30664062 31.29492188 C1.20021858 33.52978485 1.09820012 35.76476308 1 38 C0.67 38 0.34 38 0 38 C-2.03053435 12.4370229 -2.03053435 12.4370229 0 0 Z " fill="#344140" transform="translate(354,237)"/>
<path d="M0 0 C3.96 0 7.92 0 12 0 C11.01 1.485 11.01 1.485 10 3 C7.69 3 5.38 3 3 3 C3 8.28 3 13.56 3 19 C2.34 19 1.68 19 1 19 C0.67 12.73 0.34 6.46 0 0 Z " fill="#273537" transform="translate(250,163)"/>
<path d="M0 0 C5.42737117 0.28565111 8.9818649 2.62211959 13.453125 5.43359375 C16.86676885 7.53308943 20.39092945 9.26229936 24 11 C23.34 11.66 22.68 12.32 22 13 C17.67662005 12.87647486 15.02649738 10.78406912 11.71484375 8.26953125 C9.85455346 6.84118344 9.85455346 6.84118344 7.0625 5.3125 C6.381875 4.879375 5.70125 4.44625 5 4 C5 3.34 5 2.68 5 2 C3.35 1.67 1.7 1.34 0 1 C0 0.67 0 0.34 0 0 Z " fill="#0E191B" transform="translate(298,60)"/>
<path d="M0 0 C0.33 0 0.66 0 1 0 C1 7.92 1 15.84 1 24 C-10.25 26.25 -10.25 26.25 -16 26 C-13.74873467 23.74873467 -12.73144601 23.51960033 -9.6875 22.875 C-8.92824219 22.70742187 -8.16898437 22.53984375 -7.38671875 22.3671875 C-4.88804468 21.9827761 -2.52407 21.93745667 0 22 C-0.08378906 21.24976563 -0.16757813 20.49953125 -0.25390625 19.7265625 C-0.92585272 12.97307524 -0.96623413 6.71904351 0 0 Z " fill="#07090A" transform="translate(126,214)"/>
<path d="M0 0 C0.51046875 0.35191406 1.0209375 0.70382812 1.546875 1.06640625 C7.85914841 5.35293234 14.37816878 9.21289517 21 13 C20.01 14.485 20.01 14.485 19 16 C19 15.34 19 14.68 19 14 C18.30003906 13.91492188 17.60007813 13.82984375 16.87890625 13.7421875 C13.31969098 12.82461504 10.95777527 11.20979178 7.9375 9.125 C6.40416016 8.07699219 6.40416016 8.07699219 4.83984375 7.0078125 C2.52923604 5.37417789 0.24990039 3.71575138 -2 2 C-1.34 2 -0.68 2 0 2 C0 1.34 0 0.68 0 0 Z " fill="#272A26" transform="translate(151,395)"/>
<path d="M0 0 C0.66 0 1.32 0 2 0 C2.65134925 1.56020867 3.29582964 3.12328579 3.9375 4.6875 C4.47697266 5.99267578 4.47697266 5.99267578 5.02734375 7.32421875 C6.59275362 11.63066759 7.15292587 15.61680067 7.1875 20.1875 C7.20167969 21.04730469 7.21585937 21.90710938 7.23046875 22.79296875 C7 25 7 25 5 27 C4.89042969 25.85402344 4.78085937 24.70804688 4.66796875 23.52734375 C4.50839726 21.99733473 4.34820805 20.46739005 4.1875 18.9375 C4.11724609 18.18533203 4.04699219 17.43316406 3.97460938 16.65820312 C3.42160703 11.54846145 2.12670702 7.66710227 0 3 C0 2.01 0 1.02 0 0 Z " fill="#28373A" transform="translate(308,85)"/>
<path d="M0 0 C2.475 0.495 2.475 0.495 5 1 C5 1.66 5 2.32 5 3 C6.98 3 8.96 3 11 3 C10.67 3.99 10.34 4.98 10 6 C9.01 5.67 8.02 5.34 7 5 C7.680625 6.11375 8.36125 7.2275 9.0625 8.375 C10.22265625 10.2734375 10.22265625 10.2734375 11 12 C10.67 12.66 10.34 13.32 10 14 C6.08402356 12.69467452 5.46169654 11.02734726 3.3125 7.5625 C2.68988281 6.57378906 2.06726563 5.58507812 1.42578125 4.56640625 C0 2 0 2 0 0 Z " fill="#060A0C" transform="translate(329,83)"/>
<path d="M0 0 C0 0.66 0 1.32 0 2 C-7.60298267 4.48260659 -15.10311193 4.18508331 -23 4 C-23 3.34 -23 2.68 -23 2 C-23.99 1.67 -24.98 1.34 -26 1 C-24.81921875 1.01160156 -23.6384375 1.02320313 -22.421875 1.03515625 C-20.86458492 1.04453752 -19.30729312 1.05363736 -17.75 1.0625 C-16.97269531 1.07087891 -16.19539063 1.07925781 -15.39453125 1.08789062 C-14.64042969 1.09111328 -13.88632812 1.09433594 -13.109375 1.09765625 C-12.41811523 1.10289307 -11.72685547 1.10812988 -11.01464844 1.11352539 C-7.22297092 0.89986445 -3.87414523 -0.10761515 0 0 Z " fill="#1B2E32" transform="translate(292,134)"/>
<path d="M0 0 C-0.33 0.99 -0.66 1.98 -1 3 C-3.3125 4.0625 -3.3125 4.0625 -6 5 C-6.598125 5.350625 -7.19625 5.70125 -7.8125 6.0625 C-11.25841742 7.53932175 -14.23907358 7.82090827 -18 8 C-20 6.5625 -20 6.5625 -21 5 C-20.67 4.34 -20.34 3.68 -20 3 C-19.67 3.33 -19.34 3.66 -19 4 C-13.60372191 4.71003659 -9.31904059 2.81404876 -4.390625 0.875 C-2 0 -2 0 0 0 Z " fill="#151412" transform="translate(126,256)"/>
<path d="M0 0 C7.72329019 1.43993546 14.7282249 4.05532446 22 7 C22 7.33 22 7.66 22 8 C14.36945905 7.38955672 7.29810526 5.20378179 0 3 C0 2.01 0 1.02 0 0 Z " fill="#030607" transform="translate(176,411)"/>
<path d="M0 0 C0.33 0 0.66 0 1 0 C1.10957031 0.65226563 1.21914062 1.30453125 1.33203125 1.9765625 C2.27044606 7.14928804 3.4424254 11.34986436 6 16 C6 16.66 6 17.32 6 18 C6.639375 18.12375 7.27875 18.2475 7.9375 18.375 C8.618125 18.58125 9.29875 18.7875 10 19 C10.33 19.66 10.66 20.32 11 21 C6.48279689 21.36625971 6.48279689 21.36625971 4.1875 19.625 C3 18 3 18 3 16 C2.34 16 1.68 16 1 16 C-0.06723961 12.53777385 -0.10173486 9.35960734 -0.0625 5.75 C-0.04896484 4.13351563 -0.04896484 4.13351563 -0.03515625 2.484375 C-0.02355469 1.66453125 -0.01195312 0.8446875 0 0 Z " fill="#293538" transform="translate(219,165)"/>
<path d="M0 0 C2.31 0.66 4.62 1.32 7 2 C5.98408579 7.46864457 4.92908943 12.76390013 3 18 C1.68 17.34 0.36 16.68 -1 16 C-0.34 16 0.32 16 1 16 C1.13277344 15.39671875 1.26554687 14.7934375 1.40234375 14.171875 C1.57894531 13.37265625 1.75554687 12.5734375 1.9375 11.75 C2.11152344 10.96109375 2.28554687 10.1721875 2.46484375 9.359375 C2.947556 7.23121297 3.46163178 5.11467158 4 3 C2.68 2.34 1.36 1.68 0 1 C0 0.67 0 0.34 0 0 Z " fill="#192C2F" transform="translate(126,103)"/>
<path d="M0 0 C0.33 0 0.66 0 1 0 C1 6.6 1 13.2 1 20 C0.34 20 -0.32 20 -1 20 C-1.66 22.64 -2.32 25.28 -3 28 C-4.12151777 23.5139289 -3.61798672 21.28094026 -2.625 16.8125 C-1.41906039 11.21266874 -0.50070993 5.70809315 0 0 Z " fill="#233E43" transform="translate(354,320)"/>
<path d="M0 0 C0.99 0.66 1.98 1.32 3 2 C2.5206753 6.31392226 1.2542015 8.16569547 -2 11 C-2.66 10.67 -3.32 10.34 -4 10 C-3.67 8.68 -3.34 7.36 -3 6 C-4.32 5.67 -5.64 5.34 -7 5 C-7 4.01 -7 3.02 -7 2 C-4.69 2.66 -2.38 3.32 0 4 C0 2.68 0 1.36 0 0 Z " fill="#23201A" transform="translate(376,248)"/>
<path d="M0 0 C0.66 0 1.32 0 2 0 C2.33 1.32 2.66 2.64 3 4 C2.34 4 1.68 4 1 4 C1 11.59 1 19.18 1 27 C0.34 27.33 -0.32 27.66 -1 28 C-1.02886338 23.52084672 -1.04675187 19.04171709 -1.0625 14.5625 C-1.07087891 13.28310547 -1.07925781 12.00371094 -1.08789062 10.68554688 C-1.09111328 9.47060547 -1.09433594 8.25566406 -1.09765625 7.00390625 C-1.10289307 5.87799072 -1.10812988 4.7520752 -1.11352539 3.59204102 C-1 1 -1 1 0 0 Z " fill="#020304" transform="translate(356,255)"/>
<path d="M0 0 C2.64 0 5.28 0 8 0 C6.23570801 4.97209562 3.6060834 9.43438061 1 14 C0.34 14 -0.32 14 -1 14 C-0.33501617 9.61110675 1.18757677 6.0188515 3 2 C2.01 1.34 1.02 0.68 0 0 Z " fill="#090F11" transform="translate(133,91)"/>
<path d="M0 0 C0 0.99 0 1.98 0 3 C-1.53720703 3.09087891 -1.53720703 3.09087891 -3.10546875 3.18359375 C-4.46615695 3.26805026 -5.82683343 3.35269567 -7.1875 3.4375 C-7.86103516 3.47681641 -8.53457031 3.51613281 -9.22851562 3.55664062 C-12.89699102 3.78927565 -16.41694206 4.17207011 -20 5 C-20.33 4.01 -20.66 3.02 -21 2 C-14.11997829 -0.62096065 -7.27823961 -0.18170362 0 0 Z " fill="#506467" transform="translate(286,70)"/>
<path d="M0 0 C4.65169671 4.11746824 5.81964253 9.79963891 6.3125 15.8125 C6.01473943 18.8496578 5.42425459 20.38413798 4 23 C3.96261719 22.21496094 3.92523438 21.42992188 3.88671875 20.62109375 C3.49350596 14.33739915 2.70848275 9.65248574 0 4 C0 2.68 0 1.36 0 0 Z " fill="#020304" transform="translate(359,79)"/>
<path d="M0 0 C6.51390434 1.2814238 6.51390434 1.2814238 8.4375 4.125 C8.623125 4.74375 8.80875 5.3625 9 6 C8.113125 5.690625 7.22625 5.38125 6.3125 5.0625 C0.69122053 3.42489586 -5.18552198 3.33225589 -11 3 C-7.16508569 -0.16651966 -5.011488 -0.42470237 0 0 Z " fill="#132124" transform="translate(141,71)"/>
<path d="M0 0 C0.66 0.33 1.32 0.66 2 1 C0.27068346 2.72931654 -1.45990071 4.4565423 -3.203125 6.171875 C-5.10715506 8.0469386 -5.10715506 8.0469386 -7 10.5 C-9 12 -9 12 -12.75 11.75 C-14.35875 11.37875 -14.35875 11.37875 -16 11 C-15.43410156 10.73058594 -14.86820313 10.46117187 -14.28515625 10.18359375 C-11.88985503 8.94295056 -9.68336245 7.55594153 -7.4375 6.0625 C-6.67308594 5.55847656 -5.90867188 5.05445313 -5.12109375 4.53515625 C-3.20486233 3.14827053 -1.61111822 1.72435976 0 0 Z " fill="#29251E" transform="translate(158,417)"/>
<path d="M0 0 C-7.04241466 4.69494311 -15.98848014 2.79382438 -24 2 C-24 1.67 -24 1.34 -24 1 C-21.12597533 0.63547486 -18.25130957 0.28310309 -15.375 -0.0625 C-14.56675781 -0.16626953 -13.75851563 -0.27003906 -12.92578125 -0.37695312 C-8.37923587 -0.91292799 -4.51961419 -1.04580069 0 0 Z " fill="#4D595C" transform="translate(206,138)"/>
<path d="M0 0 C0.33 0 0.66 0 1 0 C1.27767374 2.54131835 1.52260763 5.07909722 1.75 7.625 C1.83121094 8.33785156 1.91242188 9.05070312 1.99609375 9.78515625 C2.44577623 15.23131069 1.45043834 17.76050794 -2 22 C-2.99 21.67 -3.98 21.34 -5 21 C-4.52949219 20.52046875 -4.05898438 20.0409375 -3.57421875 19.546875 C-1.33094962 15.91756614 -1.19137266 12.44193056 -0.8125 8.25 C-0.73064453 7.45722656 -0.64878906 6.66445312 -0.56445312 5.84765625 C-0.36494997 3.89956666 -0.18094062 1.94990129 0 0 Z " fill="#50595B" transform="translate(312,100)"/>
<path d="M0 0 C1.8125 0.1875 1.8125 0.1875 4 1 C6.53370588 4.34811134 7 5.70124217 7 10 C7.66 10.33 8.32 10.66 9 11 C7.02 11.99 7.02 11.99 5 13 C4.80664062 12.39671875 4.61328125 11.7934375 4.4140625 11.171875 C4.15367187 10.37265625 3.89328125 9.5734375 3.625 8.75 C3.36976563 7.96109375 3.11453125 7.1721875 2.8515625 6.359375 C2.04826333 4.13372042 1.10288338 2.09068328 0 0 Z " fill="#383228" transform="translate(331,410)"/>
<path d="M0 0 C4.875 1.75 4.875 1.75 6 4 C6.46537396 10.39889197 6.46537396 10.39889197 4.5 12.9375 C4.005 13.288125 3.51 13.63875 3 14 C2.34 13.67 1.68 13.34 1 13 C1.33 12.34 1.66 11.68 2 11 C2.46588282 5.11834264 2.46588282 5.11834264 0 0 Z " fill="#171512" transform="translate(339,406)"/>
<path d="M0 0 C1.40311604 4.43532042 0.10753215 7.78701026 -1.3125 12.0625 C-1.6518457 13.14241211 -1.6518457 13.14241211 -1.99804688 14.24414062 C-3.04866143 17.50498178 -4.08915054 20.13372582 -6 23 C-6.42867224 17.4272609 -4.91436374 13.13083975 -3 8 C-2.71382813 7.22269531 -2.42765625 6.44539063 -2.1328125 5.64453125 C-1.43206996 3.75920012 -0.71745034 1.87903661 0 0 Z " fill="#060B0C" transform="translate(353,340)"/>
<path d="M0 0 C0.66 0.33 1.32 0.66 2 1 C1.21753906 1.72445313 0.43507812 2.44890625 -0.37109375 3.1953125 C-1.39388569 4.17118738 -2.41598496 5.14778859 -3.4375 6.125 C-3.95376953 6.599375 -4.47003906 7.07375 -5.00195312 7.5625 C-8.43711221 10.88539899 -9.72362985 13.22375688 -10 18 C-10.33 18 -10.66 18 -11 18 C-11.40884339 14.66111235 -11.65304187 12.05981878 -9.83984375 9.1171875 C-6.89868 5.64195054 -3.67401583 2.70148223 0 0 Z " fill="#BFA47E" transform="translate(144,401)"/>
<path d="M0 0 C0.8125 1.6875 0.8125 1.6875 1 4 C-0.9375 6.8125 -0.9375 6.8125 -4 9 C-6.89006797 9.12797349 -9.13533538 8.63119729 -12 8 C-12 7.34 -12 6.68 -12 6 C-10.948125 6.12375 -9.89625 6.2475 -8.8125 6.375 C-5.14436311 6.37879806 -5.14436311 6.37879806 -3.421875 4.6640625 C-2.20199133 3.17075662 -1.092399 1.588944 0 0 Z " fill="#1C3034" transform="translate(145,83)"/>
<path d="M0 0 C2.72943537 -0.05416741 5.45778564 -0.09375225 8.1875 -0.125 C9.34088867 -0.15013672 9.34088867 -0.15013672 10.51757812 -0.17578125 C14.8149434 -0.21266851 18.07901831 0.0041496 22 2 C21.01 2.66 20.02 3.32 19 4 C17.40742107 3.55949945 15.81724397 3.1055718 14.25 2.58203125 C9.61484322 1.38300632 4.76415493 1.29727075 0 1 C0 0.67 0 0.34 0 0 Z " fill="#202B2E" transform="translate(274,71)"/>
<path d="M0 0 C0.99 0.33 1.98 0.66 3 1 C2.34 2.03125 1.68 3.0625 1 4.125 C-0.97282726 7.53576826 -1.38827665 10.0201643 -1 14 C-1.66 14 -2.32 14 -3 14 C-4.3125 11.5 -4.3125 11.5 -5 8 C-3.68201425 5.06997589 -1.93392153 2.55692981 0 0 Z " fill="#423B2F" transform="translate(141,412)"/>
<path d="M0 0 C0.33 0 0.66 0 1 0 C1.61669998 6.90703976 0.11242982 10.47759424 -4 16 C-5.35304209 11.94087374 -4.15216503 10.22850409 -2.5625 6.3125 C-2.08941406 5.13300781 -1.61632812 3.95351562 -1.12890625 2.73828125 C-0.75636719 1.83464844 -0.38382813 0.93101563 0 0 Z " fill="#283234" transform="translate(224,111)"/>
<path d="M0 0 C0.66 0.33 1.32 0.66 2 1 C1.43410156 1.55429688 0.86820313 2.10859375 0.28515625 2.6796875 C-0.44832031 3.40414062 -1.18179688 4.12859375 -1.9375 4.875 C-2.66839844 5.59429687 -3.39929688 6.31359375 -4.15234375 7.0546875 C-6.05667999 8.87027192 -6.05667999 8.87027192 -7 11 C-5.02 11.495 -5.02 11.495 -3 12 C-4.32 12.33 -5.64 12.66 -7 13 C-7.75 10.8125 -7.75 10.8125 -8 8 C-5.81703042 4.60426954 -3.32732197 2.25782562 0 0 Z " fill="#C1A680" transform="translate(110,241)"/>
<path d="M0 0 C2.64 0 5.28 0 8 0 C7.74445946 1.46109063 7.46999628 2.91888096 7.1875 4.375 C7.03667969 5.18710938 6.88585937 5.99921875 6.73046875 6.8359375 C6 9 6 9 3 11 C3 8.03 3 5.06 3 2 C2.01 2 1.02 2 0 2 C0 1.34 0 0.68 0 0 Z " fill="#374A4E" transform="translate(215,163)"/>
<path d="M0 0 C0 0.33 0 0.66 0 1 C-0.886875 1.226875 -1.77375 1.45375 -2.6875 1.6875 C-6.5820726 3.23063254 -8.43090159 4.69687348 -11 8 C-11.88527109 11.68441504 -11.88527109 11.68441504 -12 15 C-12.33 15 -12.66 15 -13 15 C-13.66964286 7.23214286 -13.66964286 7.23214286 -10.625 3.5625 C-6.87296461 -0.10020121 -5.13664638 -0.11166623 0 0 Z " fill="#363839" transform="translate(263,95)"/>
<path d="M0 0 C-1.78809697 1.17213045 -3.58059125 2.33755526 -5.375 3.5 C-6.37273437 4.1496875 -7.37046875 4.799375 -8.3984375 5.46875 C-11 7 -11 7 -13 7 C-11.96795898 3.78920572 -10.41251338 2.40059709 -7.625 0.6875 C-3.92624372 -1.03433482 -3.54141957 -1.20907496 0 0 Z " fill="#233033" transform="translate(267,74)"/>
<path d="M0 0 C0.99 0.33 1.98 0.66 3 1 C-2.445 5.455 -2.445 5.455 -8 10 C-8.66 9.67 -9.32 9.34 -10 9 C-8.71142987 7.68445979 -7.41904109 6.37265903 -6.125 5.0625 C-5.04605469 3.96615234 -5.04605469 3.96615234 -3.9453125 2.84765625 C-2 1 -2 1 0 0 Z " fill="#010202" transform="translate(162,416)"/>
<path d="M0 0 C0.99 0.33 1.98 0.66 3 1 C2.01 1.33 1.02 1.66 0 2 C0 2.66 0 3.32 0 4 C-5.28 4.66 -10.56 5.32 -16 6 C-13.0051909 4.0034606 -10.88551663 3.31442567 -7.4375 2.4375 C-3.617722 1.48823644 -3.617722 1.48823644 0 0 Z " fill="#28474C" transform="translate(290,412)"/>
<path d="M0 0 C0.556875 0.226875 1.11375 0.45375 1.6875 0.6875 C-2.0625 3.6875 -2.0625 3.6875 -4.3125 3.6875 C-3.9825 4.6775 -3.6525 5.6675 -3.3125 6.6875 C-5.6225 6.3575 -7.9325 6.0275 -10.3125 5.6875 C-7.50687824 2.58654963 -4.3951302 -0.59393651 0 0 Z " fill="#27312F" transform="translate(316.3125,401.3125)"/>
<path d="M0 0 C1.14662109 0.27070313 1.14662109 0.27070313 2.31640625 0.546875 C4.4375 1.25 4.4375 1.25 7.4375 3.25 C3.33267207 4.38314263 0.67799263 4.03328091 -3.375 2.8125 C-4.83873047 2.38130859 -4.83873047 2.38130859 -6.33203125 1.94140625 C-7.06808594 1.71324219 -7.80414063 1.48507813 -8.5625 1.25 C-5.35295864 -0.70935554 -3.63020805 -0.90908763 0 0 Z " fill="#574F4A" transform="translate(246.5625,159.75)"/>
<path d="M0 0 C7.12600133 -0.35368021 12.47059106 0.04328652 19 3 C19 3.33 19 3.66 19 4 C13.49259758 4.25033647 13.49259758 4.25033647 11.09375 3.03125 C8.73348438 1.86873111 6.86045101 1.60533391 4.25 1.375 C3.45078125 1.30023438 2.6515625 1.22546875 1.828125 1.1484375 C1.22484375 1.09945312 0.6215625 1.05046875 0 1 C0 0.67 0 0.34 0 0 Z " fill="#091214" transform="translate(332,67)"/>
<path d="M0 0 C2.3828125 0.99609375 2.3828125 0.99609375 5.125 2.4375 C6.03507813 2.91058594 6.94515625 3.38367188 7.8828125 3.87109375 C8.58148438 4.24363281 9.28015625 4.61617188 10 5 C9.01 6.485 9.01 6.485 8 8 C8 7.34 8 6.68 8 6 C7.278125 5.9175 6.55625 5.835 5.8125 5.75 C2.44686746 4.85249799 0.58387184 3.2885722 -2 1 C-1.34 0.67 -0.68 0.34 0 0 Z " fill="#2F302B" transform="translate(162,403)"/>
<path d="M0 0 C0.75 1.625 0.75 1.625 1 4 C-0.29327628 6.02613283 -1.6296945 8.02514795 -3 10 C-3.78215588 12.7282504 -3.78215588 12.7282504 -4 15 C-4.33 15 -4.66 15 -5 15 C-4.7242265 8.7950962 -3.89359206 4.89839001 0 0 Z " fill="#060706" transform="translate(136,404)"/>
<path d="M0 0 C1.32 0 2.64 0 4 0 C4 1.65 4 3.3 4 5 C2.68 5.33 1.36 5.66 0 6 C-0.38218767 4.34385343 -0.71395102 2.67542976 -1 1 C-0.67 0.67 -0.34 0.34 0 0 Z " fill="#CDCDCD" transform="translate(175,109)"/>
<path d="M0 0 C6.75 -0.125 6.75 -0.125 9 1 C9 1.66 9 2.32 9 3 C10.65 3.33 12.3 3.66 14 4 C13.67 4.66 13.34 5.32 13 6 C8.71 4.35 4.42 2.7 0 1 C0 0.67 0 0.34 0 0 Z " fill="#213A3F" transform="translate(289,58)"/>
<path d="M0 0 C0.33 0 0.66 0 1 0 C1.53251766 1.91345327 2.05059483 3.8309295 2.5625 5.75 C2.85253906 6.81734375 3.14257812 7.8846875 3.44140625 8.984375 C3.97098494 11.84335927 3.98370862 13.31597383 3 16 C3 15.01 3 14.02 3 13 C2.34 13 1.68 13 1 13 C-0.00496852 9.98509443 -0.10335303 7.95818308 -0.0625 4.8125 C-0.05347656 3.91144531 -0.04445313 3.01039063 -0.03515625 2.08203125 C-0.02355469 1.39496094 -0.01195313 0.70789063 0 0 Z " fill="#1B3034" transform="translate(126,347)"/>
<path d="M0 0 C-0.33 0.99 -0.66 1.98 -1 3 C-3.3125 4.0625 -3.3125 4.0625 -6 5 C-6.70125 5.391875 -7.4025 5.78375 -8.125 6.1875 C-10 7 -10 7 -13 6 C-4.4 0 -4.4 0 0 0 Z " fill="#010102" transform="translate(126,256)"/>
<path d="M0 0 C2.16796875 0.36328125 2.16796875 0.36328125 4 1 C2.71064081 2.14842923 1.41843421 3.29366227 0.125 4.4375 C-0.59429687 5.07558594 -1.31359375 5.71367188 -2.0546875 6.37109375 C-4 8 -4 8 -6 9 C-5.52753358 4.74780225 -3.22727623 2.62685275 0 0 Z " fill="#132023" transform="translate(152,76)"/>
<path d="M0 0 C3.61939504 1.72743854 6.87567603 3.47650757 10 6 C7.8125 6.8125 7.8125 6.8125 5 7 C2.1875 4.6875 2.1875 4.6875 0 2 C0 1.34 0 0.68 0 0 Z " fill="#070C0D" transform="translate(312,66)"/>
<path d="M0 0 C1.4391134 0.28359887 2.87625518 0.57721399 4.3125 0.875 C5.11300781 1.03742188 5.91351563 1.19984375 6.73828125 1.3671875 C9 2 9 2 12 4 C3.42857143 4.14285714 3.42857143 4.14285714 0 3 C0 2.01 0 1.02 0 0 Z " fill="#080F11" transform="translate(176,411)"/>
<path d="M0 0 C0.33 0 0.66 0 1 0 C1.30192308 7.85 1.30192308 7.85 -1 11 C-1.99 11.33 -2.98 11.66 -4 12 C-3.52309796 10.37433394 -3.04340334 8.74948689 -2.5625 7.125 C-2.29566406 6.22007812 -2.02882813 5.31515625 -1.75390625 4.3828125 C-1 2 -1 2 0 0 Z " fill="#192C30" transform="translate(346,359)"/>
<path d="M0 0 C0.99 0 1.98 0 3 0 C3.33 1.65 3.66 3.3 4 5 C2.68 5.33 1.36 5.66 0 6 C-0.38218767 4.34385343 -0.71395102 2.67542976 -1 1 C-0.67 0.67 -0.34 0.34 0 0 Z " fill="#DADBDB" transform="translate(264,106)"/>
<path d="M0 0 C0.89203125 0.20367187 1.7840625 0.40734375 2.703125 0.6171875 C3.37859375 0.78476563 4.0540625 0.95234375 4.75 1.125 C4.42 2.115 4.09 3.105 3.75 4.125 C-0.54 3.135 -4.83 2.145 -9.25 1.125 C-4.96970042 -1.01514979 -4.36227246 -1.03316979 0 0 Z " fill="#3B4547" transform="translate(204.25,75.875)"/>
<path d="M0 0 C0.33 0.99 0.66 1.98 1 3 C-4.14285714 8.57142857 -4.14285714 8.57142857 -8 9 C-7.67 8.34 -7.34 7.68 -7 7 C-6.34 7 -5.68 7 -5 7 C-5 6.01 -5 5.02 -5 4 C-4.360625 3.896875 -3.72125 3.79375 -3.0625 3.6875 C-2.381875 3.460625 -1.70125 3.23375 -1 3 C-0.67 2.01 -0.34 1.02 0 0 Z " fill="#020203" transform="translate(343,417)"/>
<path d="M0 0 C1.125 1.6875 1.125 1.6875 2 4 C1.00449408 7.80102261 0.34152484 8.77231678 -3 11 C-3.66 10.34 -4.32 9.68 -5 9 C-4.01 8.67 -3.02 8.34 -2 8 C-1.19787372 6.12612784 -1.19787372 6.12612784 -0.8125 3.9375 C-0.65394531 3.20402344 -0.49539063 2.47054687 -0.33203125 1.71484375 C-0.22246094 1.14894531 -0.11289062 0.58304688 0 0 Z " fill="#474742" transform="translate(265,153)"/>
<path d="M0 0 C0 0.33 0 0.66 0 1 C-1.0725 1.2475 -2.145 1.495 -3.25 1.75 C-8.3024334 3.43414447 -10.10694201 5.66041302 -13 10 C-12.70554242 6.56466156 -11.98263518 4.97701716 -9.875 2.1875 C-6.32886661 -0.51064497 -4.35229172 -0.42669527 0 0 Z " fill="#3C3E3F" transform="translate(175,98)"/>
<path d="M0 0 C0.66 0.99 1.32 1.98 2 3 C-2.455 5.97 -2.455 5.97 -7 9 C-7 8.01 -7 7.02 -7 6 C-6.01 6 -5.02 6 -4 6 C-3.71125 5.38125 -3.4225 4.7625 -3.125 4.125 C-2 2 -2 2 0 0 Z " fill="#1A1915" transform="translate(144,398)"/>
<path d="M0 0 C0.66 0.99 1.32 1.98 2 3 C0.68 5.64 -0.64 8.28 -2 11 C-2.33 11 -2.66 11 -3 11 C-2.53199289 6.94393835 -2.12046792 3.53411321 0 0 Z " fill="#273437" transform="translate(158,89)"/>
<path d="M0 0 C7.50769231 -0.36923077 7.50769231 -0.36923077 10 1.5 C10.495 2.2425 10.495 2.2425 11 3 C8.69 3 6.38 3 4 3 C4 2.34 4 1.68 4 1 C2.68 0.67 1.36 0.34 0 0 Z " fill="#121F21" transform="translate(330,83)"/>
<path d="M0 0 C3.14958831 3.42346555 3.56179109 6.44262737 4 11 C2 10 2 10 0.875 7.75 C-0.00513321 4.98386705 -0.1645438 2.87951649 0 0 Z " fill="#090E10" transform="translate(128,360)"/>
<path d="M0 0 C3.36591866 1.44253657 5.51047079 3.33264727 8 6 C7.01 6.33 6.02 6.66 5 7 C2.3125 5.25 2.3125 5.25 0 3 C0 2.01 0 1.02 0 0 Z " fill="#313B3E" transform="translate(250,125)"/>
<path d="M0 0 C1.52299523 2.93720508 2.80100302 5.9168649 4 9 C3.34 9.66 2.68 10.32 2 11 C-0.26881841 7.91440696 -1.05451946 6.57790624 -0.6875 2.6875 C-0.460625 1.800625 -0.23375 0.91375 0 0 Z " fill="#3C494C" transform="translate(156,116)"/>
<path d="M0 0 C1.32 0.33 2.64 0.66 4 1 C3.01 1.495 3.01 1.495 2 2 C2 4.97 2 7.94 2 11 C1.67 11 1.34 11 1 11 C0.67 7.37 0.34 3.74 0 0 Z " fill="#091013" transform="translate(345,116)"/>
<path d="M0 0 C2.12508244 3.18762365 2.5020163 5.26512223 3 9 C2.01 9.495 2.01 9.495 1 10 C-0.625 7.25 -0.625 7.25 -2 4 C-1.1875 1.625 -1.1875 1.625 0 0 Z " fill="#223C41" transform="translate(340,98)"/>
<path d="M0 0 C1.70840281 1.63412443 2.93453047 2.86906094 4 5 C4.039992 6.99960012 4.04346799 9.00047242 4 11 C0 5 0 5 0 0 Z " fill="#080E10" transform="translate(359,79)"/>
<path d="M0 0 C2.5 2.3125 2.5 2.3125 5 5 C5 5.99 5 6.98 5 8 C3.02 6.35 1.04 4.7 -1 3 C-0.67 2.01 -0.34 1.02 0 0 Z " fill="#1B2F33" transform="translate(324,76)"/>
<path d="M0 0 C-1 3 -1 3 -2.8125 4.25 C-5.33943414 5.11637742 -6.52221994 4.88492145 -9 4 C-2.25 0 -2.25 0 0 0 Z " fill="#060A0A" transform="translate(174,63)"/>
<path d="M0 0 C0 2 0 4 0 6 C-1.98 6.66 -3.96 7.32 -6 8 C-4.55746343 4.63408134 -2.66735273 2.48952921 0 0 Z " fill="#1B2221" transform="translate(329,389)"/>
<path d="M0 0 C3 1 3 1 4.25 2.875 C5 5 5 5 4 8 C1.10067643 5.60490662 0.49831724 3.68754757 0 0 Z " fill="#020304" transform="translate(374,242)"/>
<path d="M0 0 C0.66 0.99 1.32 1.98 2 3 C0.1875 4.5625 0.1875 4.5625 -2 6 C-2.99 5.67 -3.98 5.34 -5 5 C-5 4.34 -5 3.68 -5 3 C-2.5 1.375 -2.5 1.375 0 0 Z " fill="#2F3B3D" transform="translate(250,180)"/>
<path d="M0 0 C-1.28519565 2.86697492 -2.57129254 4.97607712 -5 7 C-5.66 7 -6.32 7 -7 7 C-3.86206897 0 -3.86206897 0 0 0 Z " fill="#222A2C" transform="translate(309,122)"/>
<path d="M0 0 C1.32 0.33 2.64 0.66 4 1 C3.67 3.97 3.34 6.94 3 10 C2.67 10 2.34 10 2 10 C2 7.69 2 5.38 2 3 C1.34 3 0.68 3 0 3 C0 2.01 0 1.02 0 0 Z " fill="#101B1E" transform="translate(124,119)"/>
<path d="M0 0 C3.82946843 1.45255699 5.12050295 3.42895561 7 7 C6.01 7 5.02 7 4 7 C0 2.65714286 0 2.65714286 0 0 Z " fill="#202D30" transform="translate(302,78)"/>
<path d="M0 0 C1.875 0.1875 1.875 0.1875 4 1 C5.25 3.5625 5.25 3.5625 6 6 C5.01 6 4.02 6 3 6 C0 2.66666667 0 2.66666667 0 0 Z " fill="#433B30" transform="translate(331,410)"/>
<path d="M0 0 C-1 3 -1 3 -3 4 C-3.99 5.485 -3.99 5.485 -5 7 C-5 5.68 -5 4.36 -5 3 C-5.66 3 -6.32 3 -7 3 C-6.67 2.34 -6.34 1.68 -6 1 C-3.911361 0.32624548 -2.19636905 0 0 0 Z " fill="#2E2922" transform="translate(109,252)"/>
<path d="M0 0 C3.465 1.98 3.465 1.98 7 4 C7 4.66 7 5.32 7 6 C2.25 4.125 2.25 4.125 0 3 C0 2.01 0 1.02 0 0 Z " fill="#393A38" transform="translate(253,139)"/>
<path d="M0 0 C0 0.66 0 1.32 0 2 C-3.375 2.625 -3.375 2.625 -7 3 C-7.66 2.34 -8.32 1.68 -9 1 C-5.92677456 0.08941469 -3.19902639 -0.08886184 0 0 Z " fill="#2A3638" transform="translate(292,134)"/>
<path d="M0 0 C-3.20336822 2.83374881 -5.78087253 3.5205537 -10 4 C-6.58908673 0.88145073 -4.68377325 -0.53528837 0 0 Z " fill="#05080B" transform="translate(300,411)"/>
<path d="M0 0 C0.66 0 1.32 0 2 0 C2.33 2.31 2.66 4.62 3 7 C2.01 7.495 2.01 7.495 1 8 C0.67 5.36 0.34 2.72 0 0 Z " fill="#18292D" transform="translate(342,107)"/>
<path d="M0 0 C3.3 0 6.6 0 10 0 C10 0.33 10 0.66 10 1 C6.7 1.66 3.4 2.32 0 3 C0 2.01 0 1.02 0 0 Z " fill="#142226" transform="translate(192,56)"/>
</svg>
